<svg width="21" height="80" viewBox="0 0 21 80" fill="none" xmlns="http://www.w3.org/2000/svg">
<rect width="21" height="80" fill="#F9BB88"/>
<path d="M24 46.5H29V50.5H35V54M39 67H43M39 67L9 37V35M39 67V46.5M39 31.5H43M39 31.5V36M39 31.5C39 31.2183 39 30.8685 39.0282 30.5M43 31.5C43 30.3333 43 28 41 28C39.483 28 39.1166 29.3425 39.0282 30.5M43 31.5V46.5M43 67H59.5M43 67V61.5M59.5 67H63.5V31.5M59.5 67V61.5M59.5 31.5H63.5M59.5 31.5C59.5 30.3333 59.5 28 61.5 28C63.5 28 63.5 30.3333 63.5 31.5M59.5 31.5V46.5M43 61.5H59.5M43 61.5V56M59.5 61.5V56M43 56H59.5M43 56V50.5M59.5 56V50.5M43 50.5H59.5M43 50.5V46.5M59.5 50.5V46.5M43 46.5H59.5M39 36V46.5M39 36L32.5 29.6625M9 16.5V35M9 16.5H17.5M9 16.5V13H21L39.0282 30.5M39 46.5H32.5V42.5M32.5 42.5H25V39M32.5 42.5V29.6625M25 39H17.5V35M25 39V22.35M17.5 35H9M17.5 35V16.5M17.5 16.5H19L25 22.35M25 22.35L32.5 29.6625" stroke="#F90303" stroke-width="2" stroke-linecap="round"/>
</svg>
