<svg width="300" height="270" viewBox="0 0 300 270" fill="none" xmlns="http://www.w3.org/2000/svg">
<path fill-rule="evenodd" clip-rule="evenodd" d="M140 5H148.333V13.3333H140V5ZM161.667 5H170V13.3333H161.667V5ZM191.667 5H183.333V13.3333H191.667V5ZM205 5H213.333V13.3333H205V5ZM235 5H226.667V13.3333H235V5ZM248.333 5H256.667V13.3333H248.333V5ZM278.333 5H270V13.3333H278.333V5ZM291.667 5H300V13.3333H291.667V5ZM148.333 26.6667H140V35H148.333V26.6667ZM170 26.6667H161.667V35H170V26.6667ZM183.333 26.6667H191.667V35H183.333V26.6667ZM213.333 26.6667H205V35H213.333V26.6667ZM226.667 26.6667H235V35H226.667V26.6667ZM256.667 26.6667H248.333V35H256.667V26.6667ZM270 26.6667H278.333V35H270V26.6667ZM300 26.6667H291.667V35H300V26.6667ZM161.667 48.3333H170V56.6667H161.667V48.3333ZM140 48.3337H148.333V56.667H140V48.3337ZM191.667 48.3333H183.333V56.6667H191.667V48.3333ZM205 48.3333H213.333V56.6667H205V48.3333ZM235 48.3333H226.667V56.6667H235V48.3333ZM248.333 48.3333H256.667V56.6667H248.333V48.3333ZM278.333 48.3333H270V56.6667H278.333V48.3333ZM291.667 48.3333H300V56.6667H291.667V48.3333ZM148.333 70H140V78.3333H148.333V70ZM170 70H161.667V78.3333H170V70ZM183.333 70H191.667V78.3333H183.333V70ZM213.333 70H205V78.3333H213.333V70ZM226.667 70H235V78.3333H226.667V70ZM256.667 70H248.333V78.3333H256.667V70ZM270 70H278.333V78.3333H270V70ZM300 70H291.667V78.3333H300V70ZM140 91.6667H148.333V100H140V91.6667ZM161.667 91.6667H170V100H161.667V91.6667ZM191.667 91.6667H183.333V100H191.667V91.6667ZM205 91.6667H213.333V100H205V91.6667ZM235 91.6667H226.667V100H235V91.6667ZM248.333 91.6667H256.667V100H248.333V91.6667ZM278.333 91.6667H270V100H278.333V91.6667ZM291.667 91.6667H300V100H291.667V91.6667ZM170 113.333H161.667V121.667H170V113.333ZM148.333 113.334H140V121.667H148.333V113.334ZM183.333 113.333H191.667V121.667H183.333V113.333ZM213.333 113.333H205V121.667H213.333V113.333ZM226.667 113.333H235V121.667H226.667V113.333ZM256.667 113.333H248.333V121.667H256.667V113.333ZM270 113.333H278.333V121.667H270V113.333ZM300 113.333H291.667V121.667H300V113.333ZM140 135H148.333V143.333H140V135ZM161.667 135H170V143.333H161.667V135ZM191.667 135H183.333V143.333H191.667V135ZM205 135H213.333V143.333H205V135ZM235 135H226.667V143.333H235V135ZM248.333 135H256.667V143.333H248.333V135ZM278.333 135H270V143.333H278.333V135ZM291.667 135H300V143.333H291.667V135ZM140 156.667H148.333V165H140V156.667ZM161.667 156.667H170V165H161.667V156.667ZM191.667 156.667H183.333V165H191.667V156.667ZM205 156.667H213.333V165H205V156.667ZM235 156.667H226.667V165H235V156.667ZM248.333 156.667H256.667V165H248.333V156.667ZM278.333 156.667H270V165H278.333V156.667ZM291.667 156.667H300V165H291.667V156.667Z" fill="#F4F4F4"/>
<path d="M147.595 193.328L250.745 179.573L232.693 173.556L129.544 187.311L147.595 193.328Z" fill="url(#paint0_linear_0_1)"/>
<path d="M129.544 170.115L232.694 157.22L213.783 150.648L111.493 164.097L129.544 170.115Z" fill="url(#paint1_linear_0_1)"/>
<path d="M129.544 187.31L232.693 173.555V157.221L129.544 170.116V187.31Z" fill="url(#paint2_linear_0_1)"/>
<path d="M111.493 146.905L213.783 134.01L194.013 126.907L91.7227 140.028L111.493 146.905Z" fill="url(#paint3_linear_0_1)"/>
<path d="M111.493 164.099L213.783 150.65V134.01L111.493 146.905V164.099Z" fill="url(#paint4_linear_0_1)"/>
<path d="M147.596 210.521L250.745 195.906V179.572L147.596 193.327V210.521Z" fill="url(#paint5_linear_0_1)"/>
<path d="M91.7227 140.027L194.013 126.907V109.938L91.7227 123.693V140.027Z" fill="url(#paint6_linear_0_1)"/>
<path d="M167.366 232.012L267.937 219.117V201.923L167.366 215.678V232.012Z" fill="url(#paint7_linear_0_1)"/>
<path d="M184.558 238.891L286.848 225.136L267.937 219.118L167.366 232.013L184.558 238.891Z" fill="url(#paint8_linear_0_1)"/>
<path d="M167.366 215.679L267.937 201.924L250.745 195.906L147.596 210.521L167.366 215.679Z" fill="url(#paint9_linear_0_1)"/>
<path d="M36.7096 54.9173L138.14 42.022L120.089 35.1445L17.7988 48.8995L36.7096 54.9173Z" fill="url(#paint10_linear_0_1)"/>
<path d="M120.09 18.8111L101.179 11.9336L0.608398 26.5483L17.8 32.5661L120.09 18.8111Z" fill="url(#paint11_linear_0_1)"/>
<path d="M91.7228 123.692L194.013 109.937L176.821 104.411L72.2275 118.534L91.7228 123.692Z" fill="url(#paint12_linear_0_1)"/>
<path d="M36.71 72.1115L138.14 58.3565V42.0225L36.71 54.9177V72.1115Z" fill="url(#paint13_linear_0_1)"/>
<path d="M167.366 232.014V215.68L147.595 210.522V193.328L129.544 187.31V170.116L111.493 164.099V146.905L91.7228 140.027V123.693L72.2275 118.535V101.341L55.3763 95.3237L55.6205 78.13L36.7097 72.1122V54.9185L17.799 48.9007V32.5666L0.607422 26.5488V59.2169L7.48405 61.7959L164.787 255.225L184.557 261.243V238.891L167.366 232.014Z" fill="url(#paint14_linear_0_1)"/>
<path d="M184.558 238.891V261.243L286.847 246.628V225.136L184.558 238.891Z" fill="url(#paint15_linear_0_1)"/>
<path d="M17.7988 48.9005L120.089 35.1455V18.8115L17.7988 32.5665V48.9005Z" fill="url(#paint16_linear_0_1)"/>
<path d="M55.6207 78.1302L157.051 65.0492L138.14 58.3574L36.71 72.1124L55.6207 78.1302Z" fill="url(#paint17_linear_0_1)"/>
<path d="M72.2275 118.534L176.821 104.411V87.585L72.2275 101.34V118.534Z" fill="url(#paint18_linear_0_1)"/>
<path d="M72.2272 101.341L176.821 87.5862L157.05 81.5684L55.376 95.3233L72.2272 101.341Z" fill="url(#paint19_linear_0_1)"/>
<path d="M55.376 95.3235L157.05 81.5686V65.0488L55.6201 78.1298L55.376 95.3235Z" fill="url(#paint20_linear_0_1)"/>
<path d="M5.6084 21.5482V54.2163L12.485 56.7953L169.788 250.225L189.558 256.242M5.6084 21.5482L106.179 6.93359L125.09 13.8111M5.6084 21.5482L22.8 27.566M189.558 256.242L291.848 241.628V220.136M189.558 256.242V233.891M291.848 220.136L272.937 214.118M291.848 220.136L189.558 233.891M272.937 214.118V196.924M272.937 214.118L172.367 227.013M272.937 196.924L255.746 190.906M272.937 196.924L172.367 210.679M255.746 190.906V174.572M255.746 190.906L152.596 205.521M255.746 174.572L237.695 168.554M255.746 174.572L152.596 188.327M237.695 168.554V152.22M237.695 168.554L134.545 182.309M237.695 152.22L218.784 145.649M237.695 152.22L134.545 165.116M218.784 145.649V129.009M218.784 145.649L116.494 159.098M218.784 129.009L199.014 121.905M218.784 129.009L116.494 141.904M199.014 121.905V104.938M199.014 121.905L96.7237 135.027M199.014 104.938L181.822 99.4118M199.014 104.938L96.7237 118.693M181.822 99.4118V82.5859M181.822 99.4118L77.2272 113.535M181.822 82.5859L162.052 76.5681M181.822 82.5859L77.2272 96.3409M162.052 76.5681V60.048M162.052 76.5681L60.3764 90.3231M162.052 60.048L143.141 53.3566M162.052 60.048L60.6214 73.1294M143.141 53.3566V37.0226M143.141 53.3566L41.7107 67.1116M143.141 37.0226L125.09 30.1451M143.141 37.0226L41.7107 49.9179M125.09 30.1451V13.8111M125.09 30.1451L22.8 43.9001M125.09 13.8111L22.8 27.566M22.8 27.566V43.9001M22.8 43.9001L41.7107 49.9179M41.7107 49.9179V67.1116M41.7107 67.1116L60.6214 73.1294M60.6214 73.1294L60.3764 90.3231M60.3764 90.3231L77.2272 96.3409M77.2272 96.3409V113.535M77.2272 113.535L96.7237 118.693M96.7237 118.693V135.027M96.7237 135.027L116.494 141.904M116.494 141.904V159.098M116.494 159.098L134.545 165.116M134.545 165.116V182.309M134.545 182.309L152.596 188.327M152.596 188.327V205.521M152.596 205.521L172.367 210.679M172.367 210.679V227.013M172.367 227.013L189.558 233.891" stroke="#202020" stroke-width="1.5"/>
<defs>
<linearGradient id="paint0_linear_0_1" x1="232.908" y1="183.442" x2="111.707" y2="183.442" gradientUnits="userSpaceOnUse">
<stop stop-color="#F9E5DA"/>
<stop offset="0.3285" stop-color="#F8E1D4"/>
<stop offset="0.5252" stop-color="#F4DCCE"/>
<stop offset="0.6873" stop-color="#F2D5C1"/>
<stop offset="0.8305" stop-color="#F0CEB8"/>
<stop offset="0.9599" stop-color="#F3C7AB"/>
<stop offset="1" stop-color="#F4C09F"/>
</linearGradient>
<linearGradient id="paint1_linear_0_1" x1="215.502" y1="160.382" x2="94.3023" y2="160.382" gradientUnits="userSpaceOnUse">
<stop stop-color="#F2E0D5"/>
<stop offset="0.3285" stop-color="#F4DFD3"/>
<stop offset="0.5252" stop-color="#F4DCCE"/>
<stop offset="0.6873" stop-color="#F2D5C1"/>
<stop offset="0.8305" stop-color="#F0CEB8"/>
<stop offset="0.9599" stop-color="#F1C1A3"/>
<stop offset="1" stop-color="#F3BD9A"/>
</linearGradient>
<linearGradient id="paint2_linear_0_1" x1="181.119" y1="172.265" x2="181.119" y2="146.612" gradientUnits="userSpaceOnUse">
<stop stop-color="#F9E5DA"/>
<stop offset="0.3285" stop-color="#F8E1D4"/>
<stop offset="0.5252" stop-color="#F4DCCE"/>
<stop offset="0.6873" stop-color="#F2D5C1"/>
<stop offset="0.8305" stop-color="#F0CEB8"/>
<stop offset="0.9599" stop-color="#F3C7AB"/>
<stop offset="1" stop-color="#F4C09F"/>
</linearGradient>
<linearGradient id="paint3_linear_0_1" x1="197.021" y1="136.906" x2="74.9624" y2="136.906" gradientUnits="userSpaceOnUse">
<stop stop-color="#F9E5DA"/>
<stop offset="0.3285" stop-color="#F8E1D4"/>
<stop offset="0.5252" stop-color="#F4DCCE"/>
<stop offset="0.6873" stop-color="#F2D5C1"/>
<stop offset="0.8305" stop-color="#F0CEB8"/>
<stop offset="0.9599" stop-color="#F3C7AB"/>
<stop offset="1" stop-color="#F4C09F"/>
</linearGradient>
<linearGradient id="paint4_linear_0_1" x1="162.618" y1="148.048" x2="162.032" y2="118.286" gradientUnits="userSpaceOnUse">
<stop stop-color="#F9E5DA"/>
<stop offset="0.3285" stop-color="#F8E1D4"/>
<stop offset="0.5252" stop-color="#F4DCCE"/>
<stop offset="0.6873" stop-color="#F2D5C1"/>
<stop offset="0.8305" stop-color="#F0CEB8"/>
<stop offset="0.9599" stop-color="#F3C7AB"/>
<stop offset="1" stop-color="#F4C09F"/>
</linearGradient>
<linearGradient id="paint5_linear_0_1" x1="198.932" y1="189.724" x2="197.761" y2="163.655" gradientUnits="userSpaceOnUse">
<stop stop-color="#F9E5DA"/>
<stop offset="0.3285" stop-color="#F8E1D4"/>
<stop offset="0.5252" stop-color="#F4DCCE"/>
<stop offset="0.6873" stop-color="#F2D5C1"/>
<stop offset="0.8305" stop-color="#F0CEB8"/>
<stop offset="0.9599" stop-color="#F3C7AB"/>
<stop offset="1" stop-color="#F4C09F"/>
</linearGradient>
<linearGradient id="paint6_linear_0_1" x1="142.861" y1="124.378" x2="142.563" y2="99.1572" gradientUnits="userSpaceOnUse">
<stop stop-color="#F9E5DA"/>
<stop offset="0.3285" stop-color="#F8E1D4"/>
<stop offset="0.5252" stop-color="#F4DCCE"/>
<stop offset="0.6873" stop-color="#F2D5C1"/>
<stop offset="0.8305" stop-color="#F0CEB8"/>
<stop offset="0.9599" stop-color="#F3C7AB"/>
<stop offset="1" stop-color="#F4C09F"/>
</linearGradient>
<linearGradient id="paint7_linear_0_1" x1="217.482" y1="213.784" x2="215.759" y2="181.546" gradientUnits="userSpaceOnUse">
<stop stop-color="#F9E5DA"/>
<stop offset="0.3285" stop-color="#F8E1D4"/>
<stop offset="0.5252" stop-color="#F4DCCE"/>
<stop offset="0.6873" stop-color="#F2D5C1"/>
<stop offset="0.8305" stop-color="#F0CEB8"/>
<stop offset="0.9599" stop-color="#F3C7AB"/>
<stop offset="1" stop-color="#F4C09F"/>
</linearGradient>
<linearGradient id="paint8_linear_0_1" x1="264.499" y1="229.005" x2="145.017" y2="229.005" gradientUnits="userSpaceOnUse">
<stop stop-color="#F9E5DA"/>
<stop offset="0.3285" stop-color="#F8E1D4"/>
<stop offset="0.53125" stop-color="#F4DCCE"/>
<stop offset="0.6873" stop-color="#F2D5C1"/>
<stop offset="0.8305" stop-color="#F0CEB8"/>
<stop offset="0.9599" stop-color="#F3C7AB"/>
<stop offset="1" stop-color="#F4C09F"/>
</linearGradient>
<linearGradient id="paint9_linear_0_1" x1="270.109" y1="205.244" x2="126.989" y2="206.533" gradientUnits="userSpaceOnUse">
<stop stop-color="#F9E5DA"/>
<stop offset="0.3285" stop-color="#F8E1D4"/>
<stop offset="0.5252" stop-color="#F4DCCE"/>
<stop offset="0.6873" stop-color="#F2D5C1"/>
<stop offset="0.8305" stop-color="#F0CEB8"/>
<stop offset="0.9599" stop-color="#F3C7AB"/>
<stop offset="1" stop-color="#F4C09F"/>
</linearGradient>
<linearGradient id="paint10_linear_0_1" x1="129.545" y1="45.0309" x2="9.20459" y2="45.0309" gradientUnits="userSpaceOnUse">
<stop stop-color="#F9E5DA"/>
<stop offset="0.3285" stop-color="#F8E1D4"/>
<stop offset="0.5252" stop-color="#F4DCCE"/>
<stop offset="0.6873" stop-color="#F2D5C1"/>
<stop offset="0.8305" stop-color="#F0CEB8"/>
<stop offset="0.9599" stop-color="#F3C7AB"/>
<stop offset="1" stop-color="#F4C09F"/>
</linearGradient>
<linearGradient id="paint11_linear_0_1" x1="108.271" y1="22.2498" x2="-11.2093" y2="22.2498" gradientUnits="userSpaceOnUse">
<stop stop-color="#F9E5DA"/>
<stop offset="0.3285" stop-color="#F8E1D4"/>
<stop offset="0.5252" stop-color="#F4DCCE"/>
<stop offset="0.6873" stop-color="#F4DCCE"/>
<stop offset="0.8305" stop-color="#F0CEB8"/>
<stop offset="0.9599" stop-color="#F3C7AB"/>
<stop offset="1" stop-color="#B48D74"/>
<stop offset="1" stop-color="#F4C09F"/>
</linearGradient>
<linearGradient id="paint12_linear_0_1" x1="178.815" y1="114.052" x2="57.0307" y2="114.052" gradientUnits="userSpaceOnUse">
<stop stop-color="#F9E5DA"/>
<stop offset="0.3285" stop-color="#F8E1D4"/>
<stop offset="0.5252" stop-color="#F4DCCE"/>
<stop offset="0.6873" stop-color="#F2D5C1"/>
<stop offset="0.8305" stop-color="#F0CEB8"/>
<stop offset="0.9599" stop-color="#F3C7AB"/>
<stop offset="1" stop-color="#F4C09F"/>
</linearGradient>
<linearGradient id="paint13_linear_0_1" x1="87.4258" y1="57.067" x2="87.4258" y2="32.4311" gradientUnits="userSpaceOnUse">
<stop stop-color="#F9E5DA"/>
<stop offset="0.3285" stop-color="#F8E1D4"/>
<stop offset="0.5252" stop-color="#F4DCCE"/>
<stop offset="0.6873" stop-color="#F2D5C1"/>
<stop offset="0.8305" stop-color="#F0CEB8"/>
<stop offset="0.9599" stop-color="#F3C7AB"/>
<stop offset="1" stop-color="#F4C09F"/>
</linearGradient>
<linearGradient id="paint14_linear_0_1" x1="181.522" y1="255.932" x2="13.0972" y2="50.3286" gradientUnits="userSpaceOnUse">
<stop stop-color="#F9E5DA"/>
<stop offset="0.3285" stop-color="#F8E1D4"/>
<stop offset="0.5252" stop-color="#F4DCCE"/>
<stop offset="0.6873" stop-color="#F2D5C1"/>
<stop offset="0.8305" stop-color="#F0CEB8"/>
<stop offset="0.9599" stop-color="#F3C7AB"/>
<stop offset="1" stop-color="#F4C09F"/>
</linearGradient>
<linearGradient id="paint15_linear_0_1" x1="235.86" y1="252.142" x2="235.308" y2="220.842" gradientUnits="userSpaceOnUse">
<stop stop-color="#F9E5DA"/>
<stop offset="0.3285" stop-color="#F8E1D4"/>
<stop offset="0.5252" stop-color="#F4DCCE"/>
<stop offset="0.6873" stop-color="#F2D5C1"/>
<stop offset="0.8305" stop-color="#F0CEB8"/>
<stop offset="0.9599" stop-color="#F3C7AB"/>
<stop offset="1" stop-color="#F4C09F"/>
</linearGradient>
<linearGradient id="paint16_linear_0_1" x1="68.9445" y1="33.856" x2="68.9445" y2="12.4971" gradientUnits="userSpaceOnUse">
<stop stop-color="#F9E5DA"/>
<stop offset="0.3285" stop-color="#F8E1D4"/>
<stop offset="0.5252" stop-color="#F4DCCE"/>
<stop offset="0.6873" stop-color="#F2D5C1"/>
<stop offset="0.8305" stop-color="#F0CEB8"/>
<stop offset="0.9599" stop-color="#F3C7AB"/>
<stop offset="1" stop-color="#F4C09F"/>
</linearGradient>
<linearGradient id="paint17_linear_0_1" x1="140.935" y1="68.2438" x2="20.5935" y2="68.2438" gradientUnits="userSpaceOnUse">
<stop stop-color="#F9E5DA"/>
<stop offset="0.3285" stop-color="#F8E1D4"/>
<stop offset="0.5252" stop-color="#F4DCCE"/>
<stop offset="0.6873" stop-color="#F2D5C1"/>
<stop offset="0.8305" stop-color="#F0CEB8"/>
<stop offset="0.9599" stop-color="#F3C7AB"/>
<stop offset="1" stop-color="#F4C09F"/>
</linearGradient>
<linearGradient id="paint18_linear_0_1" x1="124.49" y1="101.714" x2="123.801" y2="74.9675" gradientUnits="userSpaceOnUse">
<stop stop-color="#F9E5DA"/>
<stop offset="0.3285" stop-color="#F8E1D4"/>
<stop offset="0.5252" stop-color="#F4DCCE"/>
<stop offset="0.6873" stop-color="#F2D5C1"/>
<stop offset="0.8305" stop-color="#F0CEB8"/>
<stop offset="0.9599" stop-color="#F3C7AB"/>
<stop offset="1" stop-color="#F4C09F"/>
</linearGradient>
<linearGradient id="paint19_linear_0_1" x1="161.103" y1="91.4548" x2="39.6591" y2="91.4548" gradientUnits="userSpaceOnUse">
<stop stop-color="#F9E5DA"/>
<stop offset="0.3285" stop-color="#F8E1D4"/>
<stop offset="0.5252" stop-color="#F4DCCE"/>
<stop offset="0.6873" stop-color="#F2D5C1"/>
<stop offset="0.8305" stop-color="#F0CEB8"/>
<stop offset="0.9599" stop-color="#F3C7AB"/>
<stop offset="1" stop-color="#F4C09F"/>
</linearGradient>
<linearGradient id="paint20_linear_0_1" x1="106.193" y1="79.2187" x2="105.759" y2="56.3636" gradientUnits="userSpaceOnUse">
<stop stop-color="#F9E5DA"/>
<stop offset="0.0001" stop-color="#F9E5DA"/>
<stop offset="0.3285" stop-color="#F8E1D4"/>
<stop offset="0.5252" stop-color="#F4DCCE"/>
<stop offset="0.6873" stop-color="#F2D5C1"/>
<stop offset="0.8305" stop-color="#F0CEB8"/>
<stop offset="0.9599" stop-color="#F3C7AB"/>
<stop offset="1" stop-color="#F4C09F"/>
</linearGradient>
</defs>
</svg>
