<svg width="1084" height="72" viewBox="0 0 1084 72" fill="none" xmlns="http://www.w3.org/2000/svg">
<path fill-rule="evenodd" clip-rule="evenodd" d="M26.4079 0.582094C26.0274 1.19997 20.2225 16.4512 4.49251 58.162C2.02184 64.7138 0 70.4279 0 70.8609C0 71.3006 3.46993 71.6486 7.84169 71.6486H15.6826L18.1116 64.3624L20.5406 57.0761H35.3905H50.2403L52.6693 64.3624L55.0984 71.6486H62.9392C68.4135 71.6486 70.7809 71.3513 70.7809 70.6652C70.7809 68.5234 62.2381 47.813 60.71 46.2508C59.2161 44.7236 57.674 44.5504 42.1446 44.169L25.208 43.7526L30.2726 29.7996L35.3372 15.8458L39.4833 27.5097L43.6285 39.1727H50.9598C54.9918 39.1727 58.2902 38.8512 58.2902 38.4582C58.2902 36.727 44.8276 2.86957 43.6843 1.72458C42.272 0.31146 27.1899 -0.686133 26.4079 0.582094ZM74.9445 35.8418V71.6486H91.8403C115.177 71.6486 122.349 69.571 128.673 60.979C134.177 53.5004 135.255 49.4059 135.287 35.8418C135.311 26.3114 135.001 22.8639 133.82 19.4798C130.284 9.3456 123.326 3.0944 113.458 1.18415C110.046 0.523804 101.372 0.0841277 91.3906 0.0658079L74.9445 0.0349984V35.8418ZM159.907 1.82867C158.085 6.04388 134.067 70.288 134.067 70.9475C134.067 71.333 137.601 71.6486 141.918 71.6486H149.769L151.553 66.8822C152.534 64.2608 153.544 61.0756 153.799 59.8041L154.261 57.4924H169.365H184.469L186.872 64.5705L189.276 71.6486H197.062C201.755 71.6486 204.848 71.3139 204.848 70.8068C204.848 68.7075 196.261 47.738 194.793 46.2508C193.285 44.7244 191.735 44.5504 176.212 44.169L159.275 43.7526L164.34 29.7996L169.405 15.8458L173.551 27.5097L177.696 39.1727H185.027C189.059 39.1727 192.358 38.8512 192.358 38.4582C192.358 36.727 178.895 2.86957 177.752 1.72458C176.838 0.81109 174.26 0.36975 168.615 0.163236C161.032 -0.114058 160.721 -0.0549357 159.907 1.82867ZM112.417 15.4827C116.26 17.7352 118.77 22.4626 119.917 29.6048C121.462 39.2343 119.7 48.654 115.499 53.2164C112.502 56.4732 108.45 57.6723 98.8851 58.1311L89.9334 58.5608V35.8718V13.1828L99.7178 13.4792C107.724 13.7215 110.032 14.0854 112.417 15.4827Z" fill="#838683"/>
<path fill-rule="evenodd" clip-rule="evenodd" d="M319.256 0.582094C318.876 1.19997 313.071 16.4512 297.341 58.162C294.87 64.7138 292.848 70.4279 292.848 70.8609C292.848 71.3006 296.318 71.6486 300.69 71.6486H308.531L310.96 64.3624L313.389 57.0761H328.239H343.088L345.517 64.3624L347.947 71.6486H355.787C361.262 71.6486 363.629 71.3513 363.629 70.6652C363.629 68.5234 355.086 47.813 353.558 46.2508C352.064 44.7236 350.522 44.5504 334.993 44.169L318.056 43.7526L323.121 29.7996L328.185 15.8458L332.331 27.5097L336.477 39.1727H343.808C347.84 39.1727 351.138 38.8512 351.138 38.4582C351.138 36.727 337.676 2.86957 336.532 1.72458C335.12 0.31146 320.038 -0.686133 319.256 0.582094ZM367.793 35.8418V71.6486H384.688C408.025 71.6486 415.197 69.571 421.521 60.979C427.025 53.5004 428.103 49.4059 428.135 35.8418C428.159 26.3114 427.849 22.8639 426.668 19.4798C423.132 9.3456 416.174 3.0944 406.306 1.18415C402.894 0.523804 394.221 0.0841277 384.239 0.0658079L367.793 0.0349984V35.8418ZM452.755 1.82867C450.933 6.04388 426.916 70.288 426.916 70.9475C426.916 71.333 430.449 71.6486 434.766 71.6486H442.617L444.401 66.8822C445.382 64.2608 446.392 61.0756 446.647 59.8041L447.109 57.4924H462.213H477.317L479.721 64.5705L482.124 71.6486H489.91C494.603 71.6486 497.696 71.3139 497.696 70.8068C497.696 68.7075 489.109 47.738 487.641 46.2508C486.133 44.7244 484.583 44.5504 469.06 44.169L452.124 43.7526L457.188 29.7996L462.253 15.8458L466.399 27.5097L470.544 39.1727H477.875C481.907 39.1727 485.206 38.8512 485.206 38.4582C485.206 36.727 471.743 2.86957 470.6 1.72458C469.686 0.81109 467.108 0.36975 461.463 0.163236C453.881 -0.114058 453.569 -0.0549357 452.755 1.82867ZM405.265 15.4827C409.108 17.7352 411.619 22.4626 412.765 29.6048C414.31 39.2343 412.548 48.654 408.348 53.2164C405.35 56.4732 401.298 57.6723 391.733 58.1311L382.782 58.5608V35.8718V13.1828L392.566 13.4792C400.573 13.7215 402.88 14.0854 405.265 15.4827Z" fill="#838683"/>
<path fill-rule="evenodd" clip-rule="evenodd" d="M612.104 0.582094C611.724 1.19997 605.919 16.4512 590.189 58.162C587.718 64.7138 585.697 70.4279 585.697 70.8609C585.697 71.3006 589.166 71.6486 593.538 71.6486H601.379L603.808 64.3624L606.237 57.0761H621.087H635.937L638.366 64.3624L640.795 71.6486H648.636C654.11 71.6486 656.477 71.3513 656.477 70.6652C656.477 68.5234 647.935 47.813 646.407 46.2508C644.913 44.7236 643.37 44.5504 627.841 44.169L610.905 43.7526L615.969 29.7996L621.034 15.8458L625.18 27.5097L629.325 39.1727H636.656C640.688 39.1727 643.987 38.8512 643.987 38.4582C643.987 36.727 630.524 2.86957 629.381 1.72458C627.969 0.31146 612.886 -0.686133 612.104 0.582094ZM660.641 35.8418V71.6486H677.537C700.874 71.6486 708.045 69.571 714.37 60.979C719.874 53.5004 720.951 49.4059 720.984 35.8418C721.007 26.3114 720.697 22.8639 719.517 19.4798C715.98 9.3456 709.023 3.0944 699.154 1.18415C695.743 0.523804 687.069 0.0841277 677.087 0.0658079L660.641 0.0349984V35.8418ZM745.603 1.82867C743.781 6.04388 719.764 70.288 719.764 70.9475C719.764 71.333 723.297 71.6486 727.615 71.6486H735.466L737.249 66.8822C738.23 64.2608 739.24 61.0756 739.495 59.8041L739.957 57.4924H755.061H770.166L772.569 64.5705L774.972 71.6486H782.758C787.451 71.6486 790.545 71.3139 790.545 70.8068C790.545 68.7075 781.958 47.738 780.49 46.2508C778.982 44.7244 777.431 44.5504 761.909 44.169L744.972 43.7526L750.036 29.7996L755.101 15.8458L759.247 27.5097L763.392 39.1727H770.724C774.756 39.1727 778.054 38.8512 778.054 38.4582C778.054 36.727 764.592 2.86957 763.448 1.72458C762.535 0.81109 759.957 0.36975 754.312 0.163236C746.729 -0.114058 746.417 -0.0549357 745.603 1.82867ZM698.113 15.4827C701.956 17.7352 704.467 22.4626 705.614 29.6048C707.158 39.2343 705.396 48.654 701.196 53.2164C698.198 56.4732 694.146 57.6723 684.582 58.1311L675.63 58.5608V35.8718V13.1828L685.414 13.4792C693.421 13.7215 695.728 14.0854 698.113 15.4827Z" fill="#838683"/>
<path fill-rule="evenodd" clip-rule="evenodd" d="M904.953 0.582094C904.572 1.19997 898.767 16.4512 883.037 58.162C880.567 64.7138 878.545 70.4279 878.545 70.8609C878.545 71.3006 882.015 71.6486 886.387 71.6486H894.227L896.657 64.3624L899.086 57.0761H913.935H928.785L931.214 64.3624L933.643 71.6486H941.484C946.958 71.6486 949.326 71.3513 949.326 70.6652C949.326 68.5234 940.783 47.813 939.255 46.2508C937.761 44.7236 936.219 44.5504 920.69 44.169L903.753 43.7526L908.818 29.7996L913.882 15.8458L918.028 27.5097L922.173 39.1727H929.505C933.537 39.1727 936.835 38.8512 936.835 38.4582C936.835 36.727 923.373 2.86957 922.229 1.72458C920.817 0.31146 905.735 -0.686133 904.953 0.582094ZM953.489 35.8418V71.6486H970.385C993.722 71.6486 1000.89 69.571 1007.22 60.979C1012.72 53.5004 1013.8 49.4059 1013.83 35.8418C1013.86 26.3114 1013.55 22.8639 1012.36 19.4798C1008.83 9.3456 1001.87 3.0944 992.003 1.18415C988.591 0.523804 979.917 0.0841277 969.936 0.0658079L953.489 0.0349984V35.8418ZM1038.45 1.82867C1036.63 6.04388 1012.61 70.288 1012.61 70.9475C1012.61 71.333 1016.15 71.6486 1020.46 71.6486H1028.31L1030.1 66.8822C1031.08 64.2608 1032.09 61.0756 1032.34 59.8041L1032.81 57.4924H1047.91H1063.01L1065.42 64.5705L1067.82 71.6486H1075.61C1080.3 71.6486 1083.39 71.3139 1083.39 70.8068C1083.39 68.7075 1074.81 47.738 1073.34 46.2508C1071.83 44.7244 1070.28 44.5504 1054.76 44.169L1037.82 43.7526L1042.88 29.7996L1047.95 15.8458L1052.1 27.5097L1056.24 39.1727H1063.57C1067.6 39.1727 1070.9 38.8512 1070.9 38.4582C1070.9 36.727 1057.44 2.86957 1056.3 1.72458C1055.38 0.81109 1052.81 0.36975 1047.16 0.163236C1039.58 -0.114058 1039.27 -0.0549357 1038.45 1.82867ZM990.962 15.4827C994.805 17.7352 997.315 22.4626 998.462 29.6048C1000.01 39.2343 998.245 48.654 994.044 53.2164C991.047 56.4732 986.995 57.6723 977.43 58.1311L968.478 58.5608V35.8718V13.1828L978.263 13.4792C986.269 13.7215 988.577 14.0854 990.962 15.4827Z" fill="#838683"/>
</svg>
