<svg width="205" height="72" viewBox="0 0 205 72" fill="none" xmlns="http://www.w3.org/2000/svg">
<path fill-rule="evenodd" clip-rule="evenodd" d="M26.4079 0.582094C26.0274 1.19997 20.2225 16.4512 4.49251 58.162C2.02184 64.7138 0 70.4279 0 70.8609C0 71.3006 3.46993 71.6486 7.84169 71.6486H15.6826L18.1116 64.3624L20.5406 57.0761H35.3905H50.2403L52.6693 64.3624L55.0984 71.6486H62.9392C68.4135 71.6486 70.7809 71.3513 70.7809 70.6652C70.7809 68.5234 62.2381 47.813 60.71 46.2508C59.2161 44.7236 57.674 44.5504 42.1446 44.169L25.208 43.7526L30.2726 29.7996L35.3372 15.8458L39.4833 27.5097L43.6285 39.1727H50.9598C54.9918 39.1727 58.2902 38.8512 58.2902 38.4582C58.2902 36.727 44.8276 2.86957 43.6843 1.72458C42.272 0.31146 27.1899 -0.686133 26.4079 0.582094ZM74.9445 35.8418V71.6486H91.8403C115.177 71.6486 122.349 69.571 128.673 60.979C134.177 53.5004 135.255 49.4059 135.287 35.8418C135.311 26.3114 135.001 22.8639 133.82 19.4798C130.284 9.3456 123.326 3.0944 113.458 1.18415C110.046 0.523804 101.372 0.0841277 91.3906 0.0658079L74.9445 0.0349984V35.8418ZM159.907 1.82867C158.085 6.04388 134.067 70.288 134.067 70.9475C134.067 71.333 137.601 71.6486 141.918 71.6486H149.769L151.553 66.8822C152.534 64.2608 153.544 61.0756 153.799 59.8041L154.261 57.4924H169.365H184.469L186.872 64.5705L189.276 71.6486H197.062C201.755 71.6486 204.848 71.3139 204.848 70.8068C204.848 68.7075 196.261 47.738 194.793 46.2508C193.285 44.7244 191.735 44.5504 176.212 44.169L159.275 43.7526L164.34 29.7996L169.405 15.8458L173.551 27.5097L177.696 39.1727H185.027C189.059 39.1727 192.358 38.8512 192.358 38.4582C192.358 36.727 178.895 2.86957 177.752 1.72458C176.838 0.81109 174.26 0.36975 168.615 0.163236C161.032 -0.114058 160.721 -0.0549357 159.907 1.82867ZM112.417 15.4827C116.26 17.7352 118.77 22.4626 119.917 29.6048C121.462 39.2343 119.7 48.654 115.499 53.2164C112.502 56.4732 108.45 57.6723 98.8851 58.1311L89.9334 58.5608V35.8718V13.1828L99.7178 13.4792C107.724 13.7215 110.032 14.0854 112.417 15.4827Z" fill="#838683"/>
</svg>
