<svg width="108" height="108" viewBox="0 0 108 108" fill="none" xmlns="http://www.w3.org/2000/svg">
<circle cx="54" cy="54" r="53" stroke="#A8CF38" stroke-width="2"/>
<path d="M24.2666 41.5745C24.1149 41.5745 23.9631 41.5171 23.8463 41.4002C22.9667 40.5206 22.4807 39.3498 22.4807 38.1052C22.4807 36.8606 22.9646 35.6899 23.8463 34.8102C24.078 34.5786 24.4552 34.5786 24.6869 34.8102C24.9186 35.0419 24.9186 35.4192 24.6869 35.6509C24.0308 36.307 23.6699 37.1785 23.6699 38.1052C23.6699 39.032 24.0308 39.9034 24.6869 40.5596C24.9186 40.7912 24.9186 41.1685 24.6869 41.4002C24.5701 41.5171 24.4183 41.5745 24.2666 41.5745Z" fill="#A8CF38"/>
<path d="M46.5195 81.3093C46.3534 81.3093 46.1873 81.3011 46.0192 81.2826C44.7808 81.1514 43.6695 80.5465 42.8862 79.5787C42.6791 79.3224 42.7201 78.9493 42.9744 78.7422C43.2307 78.5351 43.6038 78.5761 43.8109 78.8303C44.3932 79.5521 45.2216 80.0011 46.1443 80.0995C47.067 80.1979 47.9712 79.9293 48.6909 79.347C48.9472 79.1399 49.3203 79.1809 49.5274 79.4352C49.7345 79.6915 49.6935 80.0647 49.4393 80.2718C48.6027 80.9504 47.5816 81.3093 46.5195 81.3093Z" fill="#A8CF38"/>
<path d="M24.2666 53.6453C24.1149 53.6453 23.9631 53.5879 23.8463 53.471C22.9667 52.5914 22.4807 51.4206 22.4807 50.176C22.4807 48.9314 22.9646 47.7607 23.8463 46.881C24.078 46.6494 24.4552 46.6494 24.6869 46.881C24.9186 47.1127 24.9186 47.49 24.6869 47.7217C24.0308 48.3778 23.6699 49.2493 23.6699 50.176C23.6699 51.1028 24.0308 51.9742 24.6869 52.6304C24.9186 52.862 24.9186 53.2393 24.6869 53.471C24.5701 53.5879 24.4183 53.6453 24.2666 53.6453Z" fill="#A8CF38"/>
<path d="M27.9307 65.9108C27.861 65.9108 27.7913 65.8985 27.7216 65.8739C26.5549 65.4371 25.6302 64.5739 25.1135 63.4421C24.5968 62.3103 24.5537 61.0431 24.9884 59.8785C25.1032 59.571 25.4457 59.4151 25.7532 59.5299C26.0608 59.6448 26.2166 59.9872 26.1018 60.2947C25.7778 61.1621 25.8106 62.1052 26.1941 62.95C26.5775 63.7927 27.2685 64.4365 28.1358 64.7625C28.4433 64.8774 28.5992 65.2198 28.4843 65.5273C28.3982 65.7631 28.1727 65.9108 27.9307 65.9108Z" fill="#A8CF38"/>
<path d="M36.1755 75.4922C35.0314 75.4922 33.9426 75.0781 33.0814 74.3112C32.1526 73.4829 31.601 72.3428 31.5293 71.1003C31.5108 70.7722 31.761 70.4913 32.089 70.4729C32.4171 70.4544 32.698 70.7046 32.7165 71.0326C32.7698 71.9574 33.1798 72.8062 33.8729 73.4234C34.5659 74.0406 35.4558 74.3502 36.3805 74.2969C36.7086 74.2784 36.9895 74.5286 37.0079 74.8566C37.0264 75.1847 36.7762 75.4656 36.4482 75.484C36.358 75.4902 36.2677 75.4922 36.1755 75.4922Z" fill="#A8CF38"/>
<path d="M81.4725 41.5745C81.3208 41.5745 81.1691 41.5171 81.0522 41.4002C80.8205 41.1685 80.8205 40.7912 81.0522 40.5596C82.4054 39.2063 82.4054 37.0042 81.0522 35.6509C80.8205 35.4192 80.8205 35.0419 81.0522 34.8102C81.2839 34.5786 81.6612 34.5786 81.8929 34.8102C82.7725 35.6899 83.2584 36.8606 83.2584 38.1052C83.2584 39.3498 82.7745 40.5206 81.8929 41.4002C81.778 41.5171 81.6242 41.5745 81.4725 41.5745Z" fill="#A8CF38"/>
<path d="M59.2197 81.3092C58.1576 81.3092 57.1365 80.9504 56.3 80.2717C56.0437 80.0646 56.0047 79.6914 56.2118 79.4351C56.4189 79.1788 56.7921 79.1399 57.0484 79.3469C58.537 80.5505 60.7247 80.3188 61.9283 78.8302C62.1354 78.5739 62.5086 78.535 62.7649 78.7421C63.0212 78.9492 63.0601 79.3223 62.853 79.5786C62.0698 80.5464 60.9585 81.1513 59.72 81.2825C59.5519 81.301 59.3858 81.3092 59.2197 81.3092Z" fill="#A8CF38"/>
<path d="M81.4725 53.6453C81.3208 53.6453 81.1691 53.5879 81.0522 53.471C80.8205 53.2393 80.8205 52.862 81.0522 52.6304C82.4054 51.2771 82.4054 49.075 81.0522 47.7217C80.8205 47.49 80.8205 47.1127 81.0522 46.881C81.2839 46.6494 81.6612 46.6494 81.8929 46.881C82.7725 47.7607 83.2584 48.9314 83.2584 50.176C83.2584 51.4206 82.7745 52.5914 81.8929 53.471C81.778 53.5879 81.6242 53.6453 81.4725 53.6453Z" fill="#A8CF38"/>
<path d="M77.8086 65.9111C77.5667 65.9111 77.3411 65.7635 77.2509 65.5256C77.1361 65.2181 77.2919 64.8757 77.5995 64.7608C78.4668 64.4369 79.1578 63.7931 79.5412 62.9483C79.9246 62.1056 79.9574 61.1624 79.6334 60.293C79.5186 59.9855 79.6745 59.6431 79.982 59.5282C80.2896 59.4134 80.632 59.5692 80.7468 59.8768C81.1835 61.0435 81.1384 62.3086 80.6217 63.4404C80.105 64.5722 79.1803 65.4375 78.0136 65.8722C77.948 65.8988 77.8763 65.9111 77.8086 65.9111Z" fill="#A8CF38"/>
<path d="M69.564 75.4922C69.4717 75.4922 69.3815 75.4902 69.2892 75.484C68.9612 75.4656 68.711 75.1847 68.7295 74.8566C68.7479 74.5286 69.0288 74.2784 69.3569 74.2969C71.2679 74.4076 72.9102 72.9436 73.0209 71.0326C73.0394 70.7046 73.3203 70.4544 73.6484 70.4729C73.9764 70.4913 74.2266 70.7722 74.2081 71.1003C74.1364 72.3428 73.5848 73.4829 72.656 74.3112C71.7969 75.0781 70.7061 75.4922 69.564 75.4922Z" fill="#A8CF38"/>
<path d="M59.1069 87.4813C56.7571 87.4813 54.5202 86.5464 52.8696 84.8978C51.2211 86.5484 48.982 87.4813 46.6323 87.4813C44.7828 87.4813 43.0133 86.9154 41.5125 85.8431C40.7907 85.3284 40.151 84.7071 39.6138 84.0018C39.0704 83.2883 38.6399 82.5009 38.3364 81.6603L37.9755 80.6576C37.1984 80.877 36.3926 80.9877 35.5745 80.9877C34.3832 80.9877 33.2289 80.754 32.1422 80.2947C31.0924 79.8498 30.1492 79.2141 29.3393 78.4042C28.5294 77.5943 27.8937 76.6512 27.4488 75.6014C26.9895 74.5146 26.7558 73.3582 26.7558 72.169C26.7558 71.7487 26.7845 71.3304 26.8439 70.9162C25.0847 70.5963 23.4423 69.7372 22.169 68.4578C21.4617 67.7483 20.8855 66.9302 20.4549 66.0301C20.01 65.0972 19.7352 64.0986 19.6389 63.0611C19.4523 61.0682 19.9423 59.0957 21.0229 57.4328C18.5275 55.8151 17 53.0347 17 50.0288C17 48.7596 17.2645 47.5335 17.7853 46.3873C18.2015 45.4729 18.7613 44.6466 19.4543 43.9248C18.7613 43.2031 18.2015 42.3768 17.7853 41.4623C17.2645 40.3161 17 39.09 17 37.8208C17 36.6295 17.2337 35.4751 17.693 34.3884C18.138 33.3386 18.7736 32.3955 19.5835 31.5855C20.3934 30.7756 21.3366 30.14 22.3864 29.6951C23.4731 29.2358 24.6295 29.0021 25.8187 29.0021C27.0203 29.0021 28.1849 29.2378 29.2839 29.7012C30.344 30.1503 31.2953 30.792 32.1135 31.6081C32.9316 32.4262 33.5713 33.3776 34.0203 34.4376C34.4837 35.5346 34.7195 36.7013 34.7195 37.9028V43.5475C34.7195 47.0927 35.2834 50.5927 36.3947 53.9512C36.9134 55.5177 37.5511 57.0453 38.2913 58.4888C39.0089 59.8892 39.8229 61.2158 40.7149 62.4358C42.4515 64.8122 44.4835 66.7765 46.5892 68.1154C47.637 68.7817 48.7011 69.2943 49.7509 69.6368C50.813 69.9833 51.8629 70.1596 52.8716 70.1596C53.8804 70.1596 54.9302 69.9833 55.9923 69.6368C57.0442 69.2923 58.1083 68.7817 59.154 68.1154C61.2598 66.7765 63.2917 64.8122 65.0284 62.4358C65.9203 61.2158 66.7344 59.8892 67.452 58.4888C68.1901 57.0453 68.8299 55.5198 69.3486 53.9512C70.4599 50.5927 71.0238 47.0927 71.0238 43.5475V37.9008C71.0238 36.6992 71.2596 35.5346 71.723 34.4356C72.172 33.3755 72.8138 32.4242 73.6298 31.6061C74.4479 30.7879 75.3993 30.1482 76.4594 29.6992C77.5563 29.2358 78.723 29 79.9245 29C81.1158 29 82.2702 29.2337 83.3569 29.693C84.4067 30.138 85.3499 30.7736 86.1598 31.5835C86.9697 32.3934 87.6053 33.3366 88.0503 34.3864C88.5095 35.4731 88.7433 36.6295 88.7433 37.8187C88.7433 39.0879 88.4788 40.3141 87.958 41.4602C87.5418 42.3747 86.982 43.201 86.289 43.9228C86.982 44.6445 87.5418 45.4708 87.958 46.3853C88.4788 47.5335 88.7433 48.7576 88.7433 50.0268C88.7433 53.0327 87.2157 55.8109 84.7184 57.4308C85.801 59.0936 86.291 61.0682 86.1024 63.0591C86.004 64.0986 85.7292 65.0972 85.2843 66.0322C84.8537 66.9343 84.2755 67.7524 83.5681 68.4619C82.2948 69.7372 80.6565 70.5943 78.8993 70.9142C78.9588 71.3283 78.9875 71.7466 78.9875 72.1669C78.9875 73.3582 78.7538 74.5126 78.2945 75.5993C77.8495 76.6491 77.2139 77.5923 76.404 78.4022C75.5941 79.2121 74.6509 79.8477 73.6011 80.2927C72.5144 80.7519 71.358 80.9857 70.1688 80.9857C69.3507 80.9857 68.5469 80.875 67.7678 80.6556L67.4069 81.6582C67.1034 82.4989 66.6728 83.2862 66.1295 83.9998C65.5923 84.7051 64.9526 85.3243 64.2308 85.841C62.7258 86.9154 60.9563 87.4813 59.1069 87.4813ZM52.8696 83.4298C53.0377 83.4298 53.2038 83.4995 53.3207 83.6368C54.7724 85.3243 56.8822 86.2942 59.1069 86.2942C60.7062 86.2942 62.2378 85.8041 63.5357 84.8794C64.8049 83.9731 65.7563 82.7224 66.2853 81.2604L66.841 79.7185C66.9517 79.411 67.2921 79.249 67.5996 79.3597C68.4218 79.6529 69.285 79.8026 70.1647 79.8026C72.2028 79.8026 74.1178 79.0091 75.5593 77.5677C77.0007 76.1263 77.7942 74.2112 77.7942 72.1731C77.7942 71.6277 77.7368 71.0843 77.622 70.5574C77.6179 70.541 77.6158 70.5246 77.6117 70.5082C77.5645 70.1904 77.7778 69.8931 78.0935 69.8356C78.1181 69.8315 78.1427 69.8274 78.1653 69.8274C79.8794 69.6388 81.4951 68.8576 82.7213 67.6294C83.3344 67.0143 83.8346 66.3069 84.2058 65.5278C84.5912 64.7199 84.8291 63.8546 84.9131 62.9566C85.0936 61.0456 84.5523 59.1531 83.3918 57.6276C83.3159 57.5312 83.2687 57.4123 83.2626 57.2852C83.2523 57.0576 83.3713 56.8464 83.5701 56.7357C86.0224 55.3947 87.5479 52.8276 87.5479 50.035C87.5479 48.936 87.3203 47.8759 86.8692 46.8856C86.4366 45.9342 85.8235 45.0935 85.0485 44.3882C84.9152 44.2775 84.8352 44.1114 84.8352 43.933C84.8352 43.7567 84.9131 43.5927 85.0423 43.4819C85.8215 42.7745 86.4366 41.9339 86.8692 40.9784C87.3203 39.986 87.5479 38.926 87.5479 37.829C87.5479 35.7909 86.7544 33.8758 85.313 32.4344C83.8716 30.993 81.9565 30.1995 79.9184 30.1995C77.8598 30.1995 75.9222 31.0012 74.4664 32.457C73.0106 33.9127 72.211 35.8422 72.211 37.9008V43.5455C72.211 47.2177 71.6266 50.8449 70.4763 54.3224C69.9391 55.9483 69.2768 57.5312 68.51 59.028C67.7657 60.4838 66.9168 61.8637 65.988 63.135C64.1652 65.6303 62.0226 67.6991 59.7917 69.116C58.6599 69.8356 57.5055 70.3893 56.3614 70.7645C55.1804 71.1499 54.0055 71.3468 52.8716 71.3468C51.7378 71.3468 50.5629 71.1499 49.3819 70.7645C48.2357 70.3893 47.0813 69.8356 45.9516 69.116C43.7207 67.6971 41.5781 65.6303 39.7553 63.135C38.8264 61.8658 37.9796 60.4838 37.2333 59.028C36.4664 57.5312 35.8042 55.9483 35.267 54.3224C34.1167 50.8449 33.5323 47.2177 33.5323 43.5455V37.9008C33.5323 35.8422 32.7306 33.9045 31.2748 32.4488C29.815 30.993 27.8794 30.1913 25.8187 30.1913C23.7807 30.1913 21.8656 30.9848 20.4242 32.4262C18.9827 33.8676 18.1892 35.7827 18.1892 37.8208C18.1892 38.9198 18.4168 39.9799 18.8679 40.9702C19.3026 41.9298 19.9218 42.7745 20.7051 43.4819C20.8301 43.5947 20.9019 43.7546 20.9019 43.9228C20.9019 44.0909 20.8301 44.2508 20.7051 44.3636C19.9198 45.073 19.3026 45.9178 18.8679 46.8774C18.4168 47.8718 18.1892 48.9319 18.1892 50.0288C18.1892 52.8133 19.7045 55.3722 22.1424 56.7172C22.2818 56.7869 22.3925 56.9079 22.4438 57.0617C22.5094 57.2585 22.4684 57.4718 22.3413 57.6276C21.1849 59.1531 20.6456 61.0436 20.824 62.9504C20.9081 63.8485 21.1459 64.7138 21.5293 65.5196C21.9004 66.2987 22.3987 67.0061 23.0118 67.6192C24.242 68.8535 25.8659 69.6368 27.5882 69.8233C27.5903 69.8233 27.5944 69.8233 27.5964 69.8233L27.6108 69.8254C27.7769 69.8459 27.9265 69.9361 28.0229 70.0714C28.1193 70.2068 28.1541 70.379 28.1193 70.541C28.0045 71.072 27.945 71.6195 27.945 72.1669C27.945 74.205 28.7385 76.1201 30.1799 77.5615C31.6214 79.003 33.5364 79.7965 35.5745 79.7965C36.4562 79.7965 37.3194 79.6468 38.1416 79.3536C38.4512 79.2429 38.7895 79.4028 38.9003 79.7124L39.4539 81.2543C39.9808 82.7142 40.9322 83.9649 42.2014 84.8732C43.4993 85.8 45.0309 86.2901 46.6302 86.2901C48.8467 86.2901 50.9504 85.3284 52.4021 83.6512C52.4329 83.6122 52.4677 83.5774 52.5087 83.5466C52.6194 83.4687 52.7445 83.4298 52.8696 83.4298Z" fill="#A8CF38"/>
</svg>
