
<svg width="77" height="77" viewBox="0 0 77 77" fill="none" xmlns="http://www.w3.org/2000/svg">
<g clip-path="url(#clip0_75_157)">
<path d="M23.9688 52.1938V63H25.7188V51.275L24.975 50.75C19.8125 47.1625 16.75 41.2563 16.75 35C16.75 24.3688 25.3688 15.75 36 15.75C38.1875 15.75 40.3312 16.1 42.3875 16.8438C47.6812 18.725 51.925 22.8375 53.9375 28.0875C54.5062 29.6188 54.9 31.1938 55.075 32.8125L55.1187 33.075L55.2062 33.2937C57.7438 39.5062 59.5375 44.275 59.7563 45.4563C59.8438 45.85 59.8438 46.1125 59.8438 46.2875C59.8 46.2875 59.7562 46.2875 59.7125 46.2875H55.1625L55.075 47.95C54.8563 52.0187 54.1562 55.3875 53.7188 56.0875C53.0625 56.35 49.9562 56.5688 46.2375 56.35L44.4 56.2625V63H46.15V58.1437C46.2375 58.1437 53.4562 58.5375 54.8125 57.5312C56.3438 56.3937 56.825 48.2125 56.825 48.125H59.7125C60.5 48.125 60.9813 47.95 61.2875 47.6C61.6375 47.1625 61.725 46.375 61.4625 45.1938C61.0687 43.225 57.7875 35.1313 56.7812 32.6812C56.6063 30.9312 56.1688 29.1812 55.5125 27.5188C53.325 21.7438 48.6875 17.2812 42.9125 15.225C40.725 14.3937 38.3625 14 36 14C24.4062 14 15 23.4062 15 35C15 41.825 18.3687 48.2563 23.9688 52.1938Z" fill="#A8CF38"/>
<path d="M38.7562 37.8001C36.6562 34.8251 33.9437 31.8938 31.45 29.3126C30.75 30.4063 30.4 30.9751 29.525 32.4188C27.4687 30.4938 24.8875 28.2188 22.5687 26.6001C24.6687 29.6188 27.7312 32.9001 29.875 35.1313C30.575 34.0376 30.9687 33.3813 31.8 31.9813C33.9437 33.9938 36.35 36.1376 38.7562 37.8001Z" fill="#A8CF38"/>
<path d="M27.6 40.2063C27.3812 41.4313 27.2937 41.825 27.1187 42.875C25.1937 42.175 22.9625 41.4313 20.9062 41.125C23.225 42.875 26.1562 44.2313 28.4312 45.2813C28.65 44.1 28.7375 43.6188 28.9125 42.5688C30.7937 43.2688 33.025 43.9688 35.125 44.3188C32.7625 42.6125 29.875 41.2563 27.6 40.2063Z" fill="#A8CF38"/>
<path d="M40.5062 18.8999C39.85 21.8749 39.7187 25.1999 39.6312 28.1312C40.8562 27.8687 41.3375 27.7812 42.5187 27.4312C42.6062 29.6624 42.825 32.1999 43.3062 34.4749C43.9625 31.4562 44.0937 28.0874 44.1812 25.2874C42.9562 25.5499 42.5187 25.6374 41.2937 25.9437C41.2062 23.7124 40.9875 21.0874 40.5062 18.8999Z" fill="#A8CF38"/>
</g>
<circle cx="38.5" cy="38.5" r="37.5" stroke="#A8CF38" stroke-width="2"/>
<defs>
<clipPath id="clip0_75_157">
<rect width="46.6375" height="49" fill="white" transform="translate(15 14)"/>
</clipPath>
</defs>
</svg>
