<svg width="703" height="403" viewBox="0 0 703 403" fill="none" xmlns="http://www.w3.org/2000/svg">
<rect y="0.460938" width="703" height="402" fill="#A8CF38"/>
<path d="M330.526 129.488C294.563 138.286 272.536 174.571 281.334 210.598C289.425 243.8 321.086 265.121 354.224 261.204C326.93 260.818 302.334 242.195 295.526 214.451C287.499 181.571 307.664 148.369 340.545 140.341C368.288 133.534 396.223 146.828 409.132 170.846C397.315 139.571 363.792 121.332 330.526 129.488Z" fill="url(#paint0_radial_530_10)" fill-opacity="0.6"/>
<path d="M433.792 179.13C445.866 221.9 420.948 266.405 378.114 278.414C338.554 289.588 297.582 269.102 282.104 232.111C298.609 260.368 332.646 275.075 365.591 265.827C404.701 254.845 427.499 214.194 416.517 175.02C407.205 142.075 376.893 120.689 344.205 121.396C383.765 115.295 422.618 139.57 433.792 179.13Z" fill="url(#paint1_radial_530_10)" fill-opacity="0.6"/>
<path d="M404.122 180.222C416.132 207.323 403.866 238.984 376.765 250.993C351.719 262.103 322.756 252.47 309.012 229.543C322.627 246.69 346.453 253.176 367.324 243.929C392.113 232.947 403.288 203.984 392.306 179.195C383.058 158.323 361.031 147.085 339.517 150.617C365.077 142.846 393.012 155.177 404.122 180.222Z" fill="url(#paint2_radial_530_10)" fill-opacity="0.6"/>
<path d="M133.005 207.155L127.362 193.361H120.861L133.005 217.913L145.182 193.361H138.648L133.005 207.155ZM151.893 193.361V216.461H157.569V193.361H151.893ZM170.449 216.461H182.098V211.874H170.449V216.461ZM170.449 197.948H182.098V193.361H170.449V197.948ZM170.449 206.561H181.438V202.073H170.449V206.561ZM166.753 193.361V216.461H172.099V193.361H166.753ZM212.377 206.528L206.041 192.206L199.771 206.528L195.217 193.361H188.617L198.616 217.814L206.041 203.888L213.499 217.814L223.498 193.361H216.865L212.377 206.528ZM249.147 204.911C249.147 203.547 249.411 202.348 249.939 201.314C250.489 200.258 251.248 199.433 252.216 198.839C253.206 198.245 254.361 197.948 255.681 197.948C257.023 197.948 258.178 198.245 259.146 198.839C260.114 199.433 260.862 200.258 261.39 201.314C261.918 202.348 262.182 203.547 262.182 204.911C262.182 206.275 261.907 207.485 261.357 208.541C260.829 209.575 260.07 210.389 259.08 210.983C258.112 211.577 256.979 211.874 255.681 211.874C254.361 211.874 253.206 211.577 252.216 210.983C251.248 210.389 250.489 209.575 249.939 208.541C249.411 207.485 249.147 206.275 249.147 204.911ZM243.24 204.911C243.24 206.693 243.537 208.332 244.131 209.828C244.747 211.324 245.605 212.622 246.705 213.722C247.827 214.822 249.147 215.68 250.665 216.296C252.183 216.89 253.855 217.187 255.681 217.187C257.485 217.187 259.146 216.89 260.664 216.296C262.182 215.68 263.491 214.822 264.591 213.722C265.713 212.622 266.571 211.324 267.165 209.828C267.781 208.332 268.089 206.693 268.089 204.911C268.089 203.129 267.781 201.501 267.165 200.027C266.549 198.553 265.68 197.277 264.558 196.199C263.436 195.121 262.116 194.296 260.598 193.724C259.102 193.13 257.463 192.833 255.681 192.833C253.921 192.833 252.282 193.13 250.764 193.724C249.246 194.296 247.926 195.121 246.804 196.199C245.682 197.277 244.802 198.553 244.164 200.027C243.548 201.501 243.24 203.129 243.24 204.911ZM275.787 193.361V208.871C275.787 210.323 276.018 211.588 276.48 212.666C276.964 213.744 277.624 214.635 278.46 215.339C279.318 216.021 280.308 216.538 281.43 216.89C282.552 217.242 283.762 217.418 285.06 217.418C286.358 217.418 287.568 217.242 288.69 216.89C289.834 216.538 290.824 216.021 291.66 215.339C292.518 214.635 293.178 213.744 293.64 212.666C294.124 211.588 294.366 210.323 294.366 208.871V193.361H288.789V208.475C288.789 209.641 288.481 210.587 287.865 211.313C287.249 212.039 286.314 212.402 285.06 212.402C283.828 212.402 282.904 212.039 282.288 211.313C281.672 210.587 281.364 209.641 281.364 208.475V193.361H275.787ZM309.156 206L315.624 216.461H322.158L314.931 206H309.156ZM303.381 193.361V216.461H308.958V193.361H303.381ZM306.879 198.08H311.4C312.148 198.08 312.786 198.201 313.314 198.443C313.864 198.685 314.282 199.037 314.568 199.499C314.854 199.939 314.997 200.478 314.997 201.116C314.997 201.754 314.854 202.304 314.568 202.766C314.282 203.206 313.864 203.547 313.314 203.789C312.786 204.009 312.148 204.119 311.4 204.119H306.879V208.442H311.796C313.776 208.442 315.426 208.123 316.746 207.485C318.066 206.847 319.067 205.967 319.749 204.845C320.431 203.701 320.772 202.392 320.772 200.918C320.772 199.422 320.431 198.113 319.749 196.991C319.067 195.847 318.066 194.956 316.746 194.318C315.426 193.68 313.776 193.361 311.796 193.361H306.879V198.08ZM345.762 208.343L341.868 211.148C342.396 212.248 343.133 213.26 344.079 214.184C345.025 215.108 346.136 215.845 347.412 216.395C348.71 216.923 350.107 217.187 351.603 217.187C352.681 217.187 353.726 217.022 354.738 216.692C355.772 216.384 356.685 215.922 357.477 215.306C358.291 214.69 358.929 213.931 359.391 213.029C359.875 212.105 360.117 211.06 360.117 209.894C360.117 208.926 359.963 208.068 359.655 207.32C359.347 206.572 358.918 205.912 358.368 205.34C357.84 204.768 357.224 204.284 356.52 203.888C355.816 203.47 355.057 203.107 354.243 202.799C353.165 202.425 352.241 202.073 351.471 201.743C350.723 201.413 350.14 201.05 349.722 200.654C349.326 200.258 349.128 199.796 349.128 199.268C349.128 198.762 349.337 198.344 349.755 198.014C350.173 197.662 350.778 197.486 351.57 197.486C352.164 197.486 352.714 197.607 353.22 197.849C353.748 198.069 354.221 198.388 354.639 198.806C355.079 199.202 355.464 199.675 355.794 200.225L360.051 197.849C359.655 197.057 359.083 196.276 358.335 195.506C357.587 194.736 356.641 194.098 355.497 193.592C354.375 193.086 353.044 192.833 351.504 192.833C350.008 192.833 348.644 193.097 347.412 193.625C346.202 194.131 345.234 194.879 344.508 195.869C343.804 196.859 343.452 198.036 343.452 199.4C343.452 200.544 343.661 201.523 344.079 202.337C344.497 203.129 345.025 203.811 345.663 204.383C346.301 204.933 346.972 205.384 347.676 205.736C348.402 206.088 349.04 206.363 349.59 206.561C350.712 206.979 351.614 207.353 352.296 207.683C352.978 208.013 353.473 208.365 353.781 208.739C354.089 209.091 354.243 209.564 354.243 210.158C354.243 210.862 353.979 211.423 353.451 211.841C352.923 212.237 352.252 212.435 351.438 212.435C350.668 212.435 349.931 212.27 349.227 211.94C348.545 211.61 347.907 211.137 347.313 210.521C346.741 209.905 346.224 209.179 345.762 208.343ZM374.076 204.68L380.379 214.316L386.715 204.68L388.101 216.461H393.975L390.246 192.206L380.379 206.297L370.545 192.206L366.816 216.461H372.69L374.076 204.68ZM401.816 193.361V216.461H407.492V193.361H401.816ZM416.677 193.361V216.461H431.527V211.676H422.254V193.361H416.677ZM442.097 216.461H453.746V211.874H442.097V216.461ZM442.097 197.948H453.746V193.361H442.097V197.948ZM442.097 206.561H453.086V202.073H442.097V206.561ZM438.401 193.361V216.461H443.747V193.361H438.401ZM488.21 208.112H494.348C494.15 208.706 493.875 209.267 493.523 209.795C493.193 210.301 492.786 210.752 492.302 211.148C491.818 211.522 491.235 211.819 490.553 212.039C489.871 212.237 489.112 212.336 488.276 212.336C486.912 212.336 485.702 212.039 484.646 211.445C483.612 210.829 482.787 209.971 482.171 208.871C481.577 207.749 481.28 206.429 481.28 204.911C481.28 203.371 481.588 202.073 482.204 201.017C482.842 199.939 483.689 199.114 484.745 198.542C485.823 197.97 487 197.684 488.276 197.684C489.618 197.684 490.729 197.992 491.609 198.608C492.511 199.202 493.226 199.961 493.754 200.885L498.704 198.311C497.978 197.233 497.109 196.287 496.097 195.473C495.107 194.637 493.963 193.988 492.665 193.526C491.367 193.064 489.904 192.833 488.276 192.833C486.45 192.833 484.756 193.119 483.194 193.691C481.632 194.263 480.268 195.077 479.102 196.133C477.936 197.189 477.034 198.465 476.396 199.961C475.758 201.435 475.439 203.085 475.439 204.911C475.439 206.737 475.747 208.409 476.363 209.927C477.001 211.423 477.881 212.721 479.003 213.821C480.125 214.899 481.456 215.735 482.996 216.329C484.536 216.901 486.23 217.187 488.078 217.187C490.036 217.187 491.774 216.846 493.292 216.164C494.81 215.46 496.075 214.492 497.087 213.26C498.099 212.028 498.847 210.609 499.331 209.003C499.815 207.397 500.002 205.67 499.892 203.822H488.21V208.112ZM510.557 212.006H522.767L522.404 207.749H510.953L510.557 212.006ZM516.596 201.842L519.863 209.333L519.665 210.752L522.437 216.461H528.773L516.596 191.909L504.452 216.461H510.755L513.626 210.521L513.362 209.3L516.596 201.842ZM535.483 193.361V216.461H550.333V211.676H541.06V193.361H535.483ZM557.208 193.361V216.461H572.058V211.676H562.785V193.361H557.208ZM582.628 216.461H594.277V211.874H582.628V216.461ZM582.628 197.948H594.277V193.361H582.628V197.948ZM582.628 206.561H593.617V202.073H582.628V206.561ZM578.932 193.361V216.461H584.278V193.361H578.932ZM608.881 206L615.349 216.461H621.883L614.656 206H608.881ZM603.106 193.361V216.461H608.683V193.361H603.106ZM606.604 198.08H611.125C611.873 198.08 612.511 198.201 613.039 198.443C613.589 198.685 614.007 199.037 614.293 199.499C614.579 199.939 614.722 200.478 614.722 201.116C614.722 201.754 614.579 202.304 614.293 202.766C614.007 203.206 613.589 203.547 613.039 203.789C612.511 204.009 611.873 204.119 611.125 204.119H606.604V208.442H611.521C613.501 208.442 615.151 208.123 616.471 207.485C617.791 206.847 618.792 205.967 619.474 204.845C620.156 203.701 620.497 202.392 620.497 200.918C620.497 199.422 620.156 198.113 619.474 196.991C618.792 195.847 617.791 194.956 616.471 194.318C615.151 193.68 613.501 193.361 611.521 193.361H606.604V198.08ZM641.731 193.361L637.21 202.04L632.689 193.361H626.287L634.372 207.089V216.461H640.048V207.056L648.133 193.361H641.731Z" fill="white"/>
<defs>
<radialGradient id="paint0_radial_530_10" cx="0" cy="0" r="1" gradientUnits="userSpaceOnUse" gradientTransform="translate(344.233 194.605) rotate(-90) scale(65.9942 65.9942)">
<stop stop-color="#A8CF38"/>
<stop offset="0.3746" stop-color="#A6CD39"/>
<stop offset="0.5615" stop-color="#9FC83B"/>
<stop offset="0.7069" stop-color="#92C13D"/>
<stop offset="0.8308" stop-color="#80B741"/>
<stop offset="0.94" stop-color="#67AC44"/>
<stop offset="1" stop-color="#53A446"/>
</radialGradient>
<radialGradient id="paint1_radial_530_10" cx="0" cy="0" r="1" gradientUnits="userSpaceOnUse" gradientTransform="translate(359.447 200.961) rotate(-90) scale(78.9415 78.9415)">
<stop stop-color="#A8CF38"/>
<stop offset="0.3746" stop-color="#A6CD39"/>
<stop offset="0.5615" stop-color="#9FC83B"/>
<stop offset="0.7069" stop-color="#92C13D"/>
<stop offset="0.8308" stop-color="#80B741"/>
<stop offset="0.94" stop-color="#67AC44"/>
<stop offset="1" stop-color="#53A446"/>
</radialGradient>
<radialGradient id="paint2_radial_530_10" cx="0" cy="0" r="1" gradientUnits="userSpaceOnUse" gradientTransform="translate(358.891 201.99) rotate(-90) scale(51.7896 51.7897)">
<stop stop-color="#A8CF38"/>
<stop offset="0.3746" stop-color="#A6CD39"/>
<stop offset="0.5615" stop-color="#9FC83B"/>
<stop offset="0.7069" stop-color="#92C13D"/>
<stop offset="0.8308" stop-color="#80B741"/>
<stop offset="0.94" stop-color="#67AC44"/>
<stop offset="1" stop-color="#53A446"/>
</radialGradient>
</defs>
</svg>
