<svg width="568" height="40" viewBox="0 0 568 40" fill="none" xmlns="http://www.w3.org/2000/svg">
<circle cx="551.5" cy="23.5" r="16.5" fill="#427B4C"/>
<path d="M551.293 28.7071C551.683 29.0976 552.317 29.0976 552.707 28.7071L559.071 22.3431C559.462 21.9526 559.462 21.3195 559.071 20.9289C558.681 20.5384 558.047 20.5384 557.657 20.9289L552 26.5858L546.343 20.9289C545.953 20.5384 545.319 20.5384 544.929 20.9289C544.538 21.3195 544.538 21.9526 544.929 22.3431L551.293 28.7071ZM551 27L551 28L553 28L553 27L551 27Z" fill="white"/>
<path d="M1.85 13.5V31H6.2V13.5H1.85ZM8.1 31C10.0167 31 11.675 30.6417 13.075 29.925C14.475 29.2083 15.5583 28.2 16.325 26.9C17.0917 25.5833 17.475 24.0333 17.475 22.25C17.475 20.45 17.0917 18.9 16.325 17.6C15.5583 16.3 14.475 15.2917 13.075 14.575C11.675 13.8583 10.0167 13.5 8.1 13.5H4.65V17.25H7.95C8.61667 17.25 9.25833 17.3333 9.875 17.5C10.5083 17.6667 11.0583 17.9417 11.525 18.325C12.0083 18.7083 12.3917 19.225 12.675 19.875C12.9583 20.5083 13.1 21.3 13.1 22.25C13.1 23.2 12.9583 24 12.675 24.65C12.3917 25.2833 12.0083 25.7917 11.525 26.175C11.0583 26.5583 10.5083 26.8333 9.875 27C9.25833 27.1667 8.61667 27.25 7.95 27.25H4.65V31H8.1ZM29.56 23.075L34.46 31H39.41L33.935 23.075H29.56ZM25.185 13.5V31H29.41V13.5H25.185ZM27.835 17.075H31.26C31.8266 17.075 32.31 17.1667 32.71 17.35C33.1266 17.5333 33.4433 17.8 33.66 18.15C33.8766 18.4833 33.985 18.8917 33.985 19.375C33.985 19.8583 33.8766 20.275 33.66 20.625C33.4433 20.9583 33.1266 21.2167 32.71 21.4C32.31 21.5667 31.8266 21.65 31.26 21.65H27.835V24.925H31.56C33.06 24.925 34.31 24.6833 35.31 24.2C36.31 23.7167 37.0683 23.05 37.585 22.2C38.1016 21.3333 38.36 20.3417 38.36 19.225C38.36 18.0917 38.1016 17.1 37.585 16.25C37.0683 15.3833 36.31 14.7083 35.31 14.225C34.31 13.7417 33.06 13.5 31.56 13.5H27.835V17.075ZM49.8465 22.25C49.8465 21.2167 50.0465 20.3083 50.4465 19.525C50.8632 18.725 51.4382 18.1 52.1715 17.65C52.9215 17.2 53.7965 16.975 54.7965 16.975C55.8132 16.975 56.6882 17.2 57.4215 17.65C58.1548 18.1 58.7215 18.725 59.1215 19.525C59.5215 20.3083 59.7215 21.2167 59.7215 22.25C59.7215 23.2833 59.5132 24.2 59.0965 25C58.6965 25.7833 58.1215 26.4 57.3715 26.85C56.6382 27.3 55.7798 27.525 54.7965 27.525C53.7965 27.525 52.9215 27.3 52.1715 26.85C51.4382 26.4 50.8632 25.7833 50.4465 25C50.0465 24.2 49.8465 23.2833 49.8465 22.25ZM45.3715 22.25C45.3715 23.6 45.5965 24.8417 46.0465 25.975C46.5132 27.1083 47.1632 28.0917 47.9965 28.925C48.8465 29.7583 49.8465 30.4083 50.9965 30.875C52.1465 31.325 53.4132 31.55 54.7965 31.55C56.1632 31.55 57.4215 31.325 58.5715 30.875C59.7215 30.4083 60.7132 29.7583 61.5465 28.925C62.3965 28.0917 63.0465 27.1083 63.4965 25.975C63.9632 24.8417 64.1965 23.6 64.1965 22.25C64.1965 20.9 63.9632 19.6667 63.4965 18.55C63.0298 17.4333 62.3715 16.4667 61.5215 15.65C60.6715 14.8333 59.6715 14.2083 58.5215 13.775C57.3882 13.325 56.1465 13.1 54.7965 13.1C53.4632 13.1 52.2215 13.325 51.0715 13.775C49.9215 14.2083 48.9215 14.8333 48.0715 15.65C47.2215 16.4667 46.5548 17.4333 46.0715 18.55C45.6048 19.6667 45.3715 20.9 45.3715 22.25ZM71.9037 13.5V31H76.1287V13.5H71.9037ZM74.5537 16.975H77.9787C78.8287 16.975 79.4954 17.1667 79.9787 17.55C80.462 17.9333 80.7037 18.4917 80.7037 19.225C80.7037 19.9417 80.462 20.4917 79.9787 20.875C79.4954 21.2583 78.8287 21.45 77.9787 21.45H74.5537V24.925H77.9787C79.462 24.925 80.7037 24.7 81.7037 24.25C82.7204 23.7833 83.487 23.125 84.0037 22.275C84.5204 21.4083 84.7787 20.3917 84.7787 19.225C84.7787 18.025 84.5204 17 84.0037 16.15C83.487 15.3 82.7204 14.65 81.7037 14.2C80.7037 13.7333 79.462 13.5 77.9787 13.5H74.5537V16.975ZM92.4799 13.5V31H96.8299V13.5H92.4799ZM98.7299 31C100.647 31 102.305 30.6417 103.705 29.925C105.105 29.2083 106.188 28.2 106.955 26.9C107.722 25.5833 108.105 24.0333 108.105 22.25C108.105 20.45 107.722 18.9 106.955 17.6C106.188 16.3 105.105 15.2917 103.705 14.575C102.305 13.8583 100.647 13.5 98.7299 13.5H95.2799V17.25H98.5799C99.2465 17.25 99.8882 17.3333 100.505 17.5C101.138 17.6667 101.688 17.9417 102.155 18.325C102.638 18.7083 103.022 19.225 103.305 19.875C103.588 20.5083 103.73 21.3 103.73 22.25C103.73 23.2 103.588 24 103.305 24.65C103.022 25.2833 102.638 25.7917 102.155 26.175C101.688 26.5583 101.138 26.8333 100.505 27C99.8882 27.1667 99.2465 27.25 98.5799 27.25H95.2799V31H98.7299ZM119.29 22.25C119.29 21.2167 119.49 20.3083 119.89 19.525C120.307 18.725 120.882 18.1 121.615 17.65C122.365 17.2 123.24 16.975 124.24 16.975C125.257 16.975 126.132 17.2 126.865 17.65C127.598 18.1 128.165 18.725 128.565 19.525C128.965 20.3083 129.165 21.2167 129.165 22.25C129.165 23.2833 128.957 24.2 128.54 25C128.14 25.7833 127.565 26.4 126.815 26.85C126.082 27.3 125.223 27.525 124.24 27.525C123.24 27.525 122.365 27.3 121.615 26.85C120.882 26.4 120.307 25.7833 119.89 25C119.49 24.2 119.29 23.2833 119.29 22.25ZM114.815 22.25C114.815 23.6 115.04 24.8417 115.49 25.975C115.957 27.1083 116.607 28.0917 117.44 28.925C118.29 29.7583 119.29 30.4083 120.44 30.875C121.59 31.325 122.857 31.55 124.24 31.55C125.607 31.55 126.865 31.325 128.015 30.875C129.165 30.4083 130.157 29.7583 130.99 28.925C131.84 28.0917 132.49 27.1083 132.94 25.975C133.407 24.8417 133.64 23.6 133.64 22.25C133.64 20.9 133.407 19.6667 132.94 18.55C132.473 17.4333 131.815 16.4667 130.965 15.65C130.115 14.8333 129.115 14.2083 127.965 13.775C126.832 13.325 125.59 13.1 124.24 13.1C122.907 13.1 121.665 13.325 120.515 13.775C119.365 14.2083 118.365 14.8333 117.515 15.65C116.665 16.4667 115.998 17.4333 115.515 18.55C115.048 19.6667 114.815 20.9 114.815 22.25ZM156.84 23.475L152.04 12.625L147.29 23.475L143.84 13.5H138.84L146.415 32.025L152.04 21.475L157.69 32.025L165.265 13.5H160.24L156.84 23.475ZM184.301 13.5V23.35L172.226 12.625V31H176.276V21.15L188.376 31.875V13.5H184.301ZM213.045 22.25C213.045 21.2167 213.245 20.3083 213.645 19.525C214.061 18.725 214.636 18.1 215.37 17.65C216.12 17.2 216.995 16.975 217.995 16.975C219.011 16.975 219.886 17.2 220.62 17.65C221.353 18.1 221.92 18.725 222.32 19.525C222.72 20.3083 222.92 21.2167 222.92 22.25C222.92 23.2833 222.711 24.2 222.295 25C221.895 25.7833 221.32 26.4 220.57 26.85C219.836 27.3 218.978 27.525 217.995 27.525C216.995 27.525 216.12 27.3 215.37 26.85C214.636 26.4 214.061 25.7833 213.645 25C213.245 24.2 213.045 23.2833 213.045 22.25ZM208.57 22.25C208.57 23.6 208.795 24.8417 209.245 25.975C209.711 27.1083 210.361 28.0917 211.195 28.925C212.045 29.7583 213.045 30.4083 214.195 30.875C215.345 31.325 216.611 31.55 217.995 31.55C219.361 31.55 220.62 31.325 221.77 30.875C222.92 30.4083 223.911 29.7583 224.745 28.925C225.595 28.0917 226.245 27.1083 226.695 25.975C227.161 24.8417 227.395 23.6 227.395 22.25C227.395 20.9 227.161 19.6667 226.695 18.55C226.228 17.4333 225.57 16.4667 224.72 15.65C223.87 14.8333 222.87 14.2083 221.72 13.775C220.586 13.325 219.345 13.1 217.995 13.1C216.661 13.1 215.42 13.325 214.27 13.775C213.12 14.2083 212.12 14.8333 211.27 15.65C210.42 16.4667 209.753 17.4333 209.27 18.55C208.803 19.6667 208.57 20.9 208.57 22.25ZM237.902 17.125H245.727V13.5H237.902V17.125ZM237.902 23.975H245.477V20.575H237.902V23.975ZM235.102 13.5V31H239.152V13.5H235.102ZM269.165 27.625H278.415L278.14 24.4H269.465L269.165 27.625ZM273.74 19.925L276.215 25.6L276.065 26.675L278.165 31H282.965L273.74 12.4L264.54 31H269.315L271.49 26.5L271.29 25.575L273.74 19.925ZM289.799 13.5V31H301.049V27.375H294.024V13.5H289.799ZM308.007 13.5V31H319.257V27.375H312.232V13.5H308.007ZM340.635 24.85L337.685 26.975C338.085 27.8083 338.644 28.575 339.36 29.275C340.077 29.975 340.919 30.5333 341.885 30.95C342.869 31.35 343.927 31.55 345.06 31.55C345.877 31.55 346.669 31.425 347.435 31.175C348.219 30.9417 348.91 30.5917 349.51 30.125C350.127 29.6583 350.61 29.0833 350.96 28.4C351.327 27.7 351.51 26.9083 351.51 26.025C351.51 25.2917 351.394 24.6417 351.16 24.075C350.927 23.5083 350.602 23.0083 350.185 22.575C349.785 22.1417 349.319 21.775 348.785 21.475C348.252 21.1583 347.677 20.8833 347.06 20.65C346.244 20.3667 345.544 20.1 344.96 19.85C344.394 19.6 343.952 19.325 343.635 19.025C343.335 18.725 343.185 18.375 343.185 17.975C343.185 17.5917 343.344 17.275 343.66 17.025C343.977 16.7583 344.435 16.625 345.035 16.625C345.485 16.625 345.902 16.7167 346.285 16.9C346.685 17.0667 347.044 17.3083 347.36 17.625C347.694 17.925 347.985 18.2833 348.235 18.7L351.46 16.9C351.16 16.3 350.727 15.7083 350.16 15.125C349.594 14.5417 348.877 14.0583 348.01 13.675C347.16 13.2917 346.152 13.1 344.985 13.1C343.852 13.1 342.819 13.3 341.885 13.7C340.969 14.0833 340.235 14.65 339.685 15.4C339.152 16.15 338.885 17.0417 338.885 18.075C338.885 18.9417 339.044 19.6833 339.36 20.3C339.677 20.9 340.077 21.4167 340.56 21.85C341.044 22.2667 341.552 22.6083 342.085 22.875C342.635 23.1417 343.119 23.35 343.535 23.5C344.385 23.8167 345.069 24.1 345.585 24.35C346.102 24.6 346.477 24.8667 346.71 25.15C346.944 25.4167 347.06 25.775 347.06 26.225C347.06 26.7583 346.86 27.1833 346.46 27.5C346.06 27.8 345.552 27.95 344.935 27.95C344.352 27.95 343.794 27.825 343.26 27.575C342.744 27.325 342.26 26.9667 341.81 26.5C341.377 26.0333 340.985 25.4833 340.635 24.85ZM362.135 31H370.96V27.525H362.135V31ZM362.135 16.975H370.96V13.5H362.135V16.975ZM362.135 23.5H370.46V20.1H362.135V23.5ZM359.335 13.5V31H363.385V13.5H359.335ZM383.774 23.075L388.674 31H393.624L388.149 23.075H383.774ZM379.399 13.5V31H383.624V13.5H379.399ZM382.049 17.075H385.474C386.04 17.075 386.524 17.1667 386.924 17.35C387.34 17.5333 387.657 17.8 387.874 18.15C388.09 18.4833 388.199 18.8917 388.199 19.375C388.199 19.8583 388.09 20.275 387.874 20.625C387.657 20.9583 387.34 21.2167 386.924 21.4C386.524 21.5667 386.04 21.65 385.474 21.65H382.049V24.925H385.774C387.274 24.925 388.524 24.6833 389.524 24.2C390.524 23.7167 391.282 23.05 391.799 22.2C392.315 21.3333 392.574 20.3417 392.574 19.225C392.574 18.0917 392.315 17.1 391.799 16.25C391.282 15.3833 390.524 14.7083 389.524 14.225C388.524 13.7417 387.274 13.5 385.774 13.5H382.049V17.075ZM407.91 23.95L403.635 13.5H398.71L407.91 32.1L417.135 13.5H412.185L407.91 23.95ZM423.969 13.5V31H428.269V13.5H423.969ZM440.577 22.25C440.577 21.1667 440.819 20.2417 441.302 19.475C441.785 18.7083 442.419 18.125 443.202 17.725C444.002 17.325 444.877 17.125 445.827 17.125C446.66 17.125 447.394 17.2333 448.027 17.45C448.66 17.65 449.227 17.9333 449.727 18.3C450.227 18.65 450.669 19.025 451.052 19.425V14.875C450.352 14.325 449.585 13.8917 448.752 13.575C447.919 13.2583 446.86 13.1 445.577 13.1C444.177 13.1 442.885 13.3167 441.702 13.75C440.519 14.1833 439.502 14.8083 438.652 15.625C437.802 16.4417 437.144 17.4083 436.677 18.525C436.21 19.6417 435.977 20.8833 435.977 22.25C435.977 23.6167 436.21 24.8583 436.677 25.975C437.144 27.0917 437.802 28.0583 438.652 28.875C439.502 29.6917 440.519 30.3167 441.702 30.75C442.885 31.1833 444.177 31.4 445.577 31.4C446.86 31.4 447.919 31.2417 448.752 30.925C449.585 30.6083 450.352 30.175 451.052 29.625V25.075C450.669 25.475 450.227 25.85 449.727 26.2C449.227 26.55 448.66 26.8333 448.027 27.05C447.394 27.2667 446.66 27.375 445.827 27.375C444.877 27.375 444.002 27.175 443.202 26.775C442.419 26.375 441.785 25.7917 441.302 25.025C440.819 24.2417 440.577 23.3167 440.577 22.25ZM462.306 31H471.131V27.525H462.306V31ZM462.306 16.975H471.131V13.5H462.306V16.975ZM462.306 23.5H470.631V20.1H462.306V23.5ZM459.506 13.5V31H463.556V13.5H459.506ZM481.495 24.85L478.545 26.975C478.945 27.8083 479.503 28.575 480.22 29.275C480.936 29.975 481.778 30.5333 482.745 30.95C483.728 31.35 484.786 31.55 485.92 31.55C486.736 31.55 487.528 31.425 488.295 31.175C489.078 30.9417 489.77 30.5917 490.37 30.125C490.986 29.6583 491.47 29.0833 491.82 28.4C492.186 27.7 492.37 26.9083 492.37 26.025C492.37 25.2917 492.253 24.6417 492.02 24.075C491.786 23.5083 491.461 23.0083 491.045 22.575C490.645 22.1417 490.178 21.775 489.645 21.475C489.111 21.1583 488.536 20.8833 487.92 20.65C487.103 20.3667 486.403 20.1 485.82 19.85C485.253 19.6 484.811 19.325 484.495 19.025C484.195 18.725 484.045 18.375 484.045 17.975C484.045 17.5917 484.203 17.275 484.52 17.025C484.836 16.7583 485.295 16.625 485.895 16.625C486.345 16.625 486.761 16.7167 487.145 16.9C487.545 17.0667 487.903 17.3083 488.22 17.625C488.553 17.925 488.845 18.2833 489.095 18.7L492.32 16.9C492.02 16.3 491.586 15.7083 491.02 15.125C490.453 14.5417 489.736 14.0583 488.87 13.675C488.02 13.2917 487.011 13.1 485.845 13.1C484.711 13.1 483.678 13.3 482.745 13.7C481.828 14.0833 481.095 14.65 480.545 15.4C480.011 16.15 479.745 17.0417 479.745 18.075C479.745 18.9417 479.903 19.6833 480.22 20.3C480.536 20.9 480.936 21.4167 481.42 21.85C481.903 22.2667 482.411 22.6083 482.945 22.875C483.495 23.1417 483.978 23.35 484.395 23.5C485.245 23.8167 485.928 24.1 486.445 24.35C486.961 24.6 487.336 24.8667 487.57 25.15C487.803 25.4167 487.92 25.775 487.92 26.225C487.92 26.7583 487.72 27.1833 487.32 27.5C486.92 27.8 486.411 27.95 485.795 27.95C485.211 27.95 484.653 27.825 484.12 27.575C483.603 27.325 483.12 26.9667 482.67 26.5C482.236 26.0333 481.845 25.4833 481.495 24.85Z" fill="#427B4C"/>
</svg>
