<svg width="240" height="93" viewBox="0 0 240 93" fill="none" xmlns="http://www.w3.org/2000/svg">
<path d="M41.9668 0.123436C65.3582 1.42125 83.9293 21.5682 83.9293 46.2574C83.9293 70.9467 65.3582 91.1245 41.9668 92.3914L41.9668 92.5459L134.513 92.5459L134.513 -0.000164263L41.9668 -0.000160217L41.9668 0.123436Z" fill="#594A42"/>
<path d="M24.6009 11.866C7.29676 16.0994 -3.30201 33.558 0.931319 50.893C4.82474 66.8684 20.0585 77.1272 36.003 75.2423C22.8705 75.0569 11.0357 66.0959 7.76026 52.747C3.89774 36.9261 13.6004 20.9507 29.4213 17.0882C42.7702 13.8127 56.2118 20.2091 62.4227 31.7658C56.7371 16.7174 40.6072 7.9417 24.6009 11.866Z" fill="url(#paint0_radial_39_298)"/>
<path d="M74.2884 35.7515C80.0976 56.331 68.1083 77.7448 47.4979 83.5232C28.4634 88.8998 8.74907 79.0426 1.30212 61.2441C9.24347 74.8402 25.6206 81.9164 41.4724 77.4667C60.2906 72.1828 71.2601 52.623 65.9762 33.7739C61.4957 17.9221 46.9108 7.63231 31.1826 7.9722C50.2171 5.03669 68.9117 16.717 74.2884 35.7515Z" fill="url(#paint1_radial_39_298)"/>
<path d="M60.0124 36.2775C65.7908 49.3174 59.8888 64.5512 46.849 70.3295C34.7979 75.6753 20.8619 71.0402 14.2493 60.0089C20.8001 68.2592 32.2641 71.3801 42.3066 66.9305C54.2341 61.6466 59.6107 47.7106 54.3268 35.7831C49.8772 25.7406 39.2784 20.333 28.9269 22.0325C41.2251 18.2936 54.6667 24.2264 60.0124 36.2775Z" fill="url(#paint2_radial_39_298)"/>
<rect x="96.8889" width="143.111" height="92.4444" fill="#594A42"/>
<path d="M98.5001 61.2817H103.089C107.22 61.2817 110.111 64.127 110.111 67.8442V67.8901C110.111 71.6073 107.265 74.4985 103.089 74.4985H98.5001V61.2817ZM103.089 73.0759C106.439 73.0759 108.55 70.8272 108.55 67.8901V67.8442C108.55 64.9072 106.439 62.6126 103.089 62.6126H100.015V73.03H103.089V73.0759Z" fill="white"/>
<path d="M121.125 61.2817H130.67V62.6585H122.639V67.1558H129.844V68.5326H122.639V73.1217H130.762V74.4985H121.125V61.2817Z" fill="white"/>
<path d="M141.684 61.2817H143.061L151.367 71.8368V61.2817H152.836V74.4526H151.643L143.153 63.6681V74.4526H141.684V61.2817Z" fill="white"/>
<path d="M167.934 62.6585H163.528V61.2817H173.9V62.6585H169.494V74.4526H167.98V62.6585H167.934Z" fill="white"/>
<path d="M187.713 61.1899H189.09L195.102 74.4526H193.495L191.935 70.9648H184.776L183.216 74.4526H181.701L187.713 61.1899ZM191.384 69.634L188.401 62.9338L185.373 69.634H191.384Z" fill="white"/>
<path d="M205.611 61.2817H207.079V73.0759H214.514V74.4526H205.611V61.2817Z" fill="white"/>
<path d="M97.3068 26.4964V19.1079H100.152V26.4505C100.152 28.5616 101.208 29.6629 102.951 29.6629C104.695 29.6629 105.751 28.6074 105.751 26.5423V19.1079H108.596V26.4047C108.596 30.3054 106.393 32.2329 102.906 32.2329C99.4178 32.2788 97.3068 30.3054 97.3068 26.4964Z" fill="white"/>
<path d="M111.717 19.1079H114.332L120.39 27.093V19.1079H123.19V32.0493H120.757L114.47 23.8347V32.0493H111.671V19.1079H111.717Z" fill="white"/>
<path d="M126.723 19.1079H129.569V32.0493H126.723V19.1079Z" fill="white"/>
<path d="M131.955 19.1079H135.121L138.517 28.2403L141.913 19.1079H144.988L139.756 32.1411H137.232L131.955 19.1079Z" fill="white"/>
<path d="M147.191 19.1079H156.966V21.6319H150.036V24.2477H156.14V26.7718H150.036V29.4794H157.057V32.0034H147.191V19.1079Z" fill="white"/>
<path d="M159.811 19.1079H165.731C167.383 19.1079 168.668 19.5668 169.494 20.4388C170.228 21.173 170.595 22.1826 170.595 23.4217V23.4676C170.595 25.5786 169.448 26.8636 167.842 27.506L171.008 32.1411H167.658L164.905 28.0109H164.859H162.656V32.1411H159.811V19.1079ZM165.547 25.395C166.924 25.395 167.75 24.6608 167.75 23.5594V23.5135C167.75 22.2744 166.878 21.6778 165.501 21.6778H162.656V25.395H165.547Z" fill="white"/>
<path d="M172.523 30.1677L174.221 28.1485C175.368 29.1122 176.607 29.7088 178.076 29.7088C179.223 29.7088 179.957 29.2499 179.957 28.4697V28.4238C179.957 27.6896 179.498 27.3224 177.341 26.7717C174.726 26.0834 173.028 25.395 173.028 22.8251V22.7792C173.028 20.4387 174.909 18.8784 177.571 18.8784C179.452 18.8784 181.059 19.475 182.389 20.5305L180.921 22.6874C179.774 21.9072 178.626 21.4024 177.571 21.4024C176.469 21.4024 175.919 21.9073 175.919 22.5497V22.5956C175.919 23.4676 176.469 23.7429 178.718 24.2936C181.334 24.982 182.848 25.8998 182.848 28.1944V28.2403C182.848 30.8102 180.875 32.2787 178.076 32.2787C176.056 32.2328 174.083 31.5445 172.523 30.1677Z" fill="white"/>
<path d="M185.648 19.1079H188.493V32.0493H185.648V19.1079Z" fill="white"/>
<path d="M195.01 21.7237H191.063V19.1079H201.802V21.7237H197.855V32.0493H195.01V21.7237Z" fill="white"/>
<path d="M207.859 26.9554L202.903 19.1079H206.253L209.328 24.2936L212.494 19.1079H215.753L210.796 26.9095V32.0952H207.951V26.9554H207.859Z" fill="white"/>
<path d="M103.823 40.4468H106.485L112.13 53.7553H109.101L107.908 50.8183H102.355L101.162 53.7553H98.2247L103.823 40.4468ZM106.898 48.2024L105.154 43.9345L103.41 48.2024H106.898Z" fill="white"/>
<path d="M118.509 40.5386H121.721L125.163 49.8087L128.605 40.5386H131.726L126.402 53.8012H123.832L118.509 40.5386Z" fill="white"/>
<path d="M141.087 40.5386H151.046V43.1085H143.979V45.7702H150.174V48.3401H143.979V51.0936H151.138V53.6635H141.087V40.5386Z" fill="white"/>
<path d="M161.05 40.5386H163.712L169.907 48.6614V40.5386H172.752V53.7094H170.274L163.895 45.3113V53.7094H161.05V40.5386Z" fill="white"/>
<path d="M183.078 48.1107V40.5845H185.969V48.0189C185.969 50.1758 187.025 51.2772 188.814 51.2772C190.604 51.2772 191.66 50.2217 191.66 48.1107V40.5845H194.551V48.0189C194.551 52.0115 192.302 53.9848 188.769 53.9848C185.235 53.9389 183.078 51.9656 183.078 48.1107Z" fill="white"/>
<path d="M204.831 40.5386H214.789V43.1085H207.722V45.7702H213.917V48.3401H207.722V51.0936H214.881V53.6635H204.831V40.5386Z" fill="white"/>
<path d="M215.037 35.873H97.9249V36.182H215.037V35.873Z" fill="white"/>
<path d="M215.778 57.7778H98.6666V58.0868H215.778V57.7778Z" fill="white"/>
<defs>
<radialGradient id="paint0_radial_39_298" cx="0" cy="0" r="1" gradientUnits="userSpaceOnUse" gradientTransform="translate(31.1961 43.1978) rotate(-90) scale(31.7538 31.7538)">
<stop stop-color="#A8CF38"/>
<stop offset="0.3746" stop-color="#A6CD39"/>
<stop offset="0.5615" stop-color="#9FC83B"/>
<stop offset="0.7069" stop-color="#92C13D"/>
<stop offset="0.8308" stop-color="#80B741"/>
<stop offset="0.94" stop-color="#67AC44"/>
<stop offset="1" stop-color="#53A446"/>
</radialGradient>
<radialGradient id="paint1_radial_39_298" cx="0" cy="0" r="1" gradientUnits="userSpaceOnUse" gradientTransform="translate(38.5164 46.2558) rotate(-90) scale(37.9835 37.9835)">
<stop stop-color="#A8CF38"/>
<stop offset="0.3746" stop-color="#A6CD39"/>
<stop offset="0.5615" stop-color="#9FC83B"/>
<stop offset="0.7069" stop-color="#92C13D"/>
<stop offset="0.8308" stop-color="#80B741"/>
<stop offset="0.94" stop-color="#67AC44"/>
<stop offset="1" stop-color="#53A446"/>
</radialGradient>
<radialGradient id="paint2_radial_39_298" cx="0" cy="0" r="1" gradientUnits="userSpaceOnUse" gradientTransform="translate(38.249 46.7514) rotate(-90) scale(24.9191 24.9191)">
<stop stop-color="#A8CF38"/>
<stop offset="0.3746" stop-color="#A6CD39"/>
<stop offset="0.5615" stop-color="#9FC83B"/>
<stop offset="0.7069" stop-color="#92C13D"/>
<stop offset="0.8308" stop-color="#80B741"/>
<stop offset="0.94" stop-color="#67AC44"/>
<stop offset="1" stop-color="#53A446"/>
</radialGradient>
</defs>
</svg>
