<svg width="84" height="84" viewBox="0 0 84 84" fill="none" xmlns="http://www.w3.org/2000/svg">
<path d="M63.0607 40.9393C63.6464 41.5251 63.6464 42.4749 63.0607 43.0607L53.5147 52.6066C52.9289 53.1924 51.9792 53.1924 51.3934 52.6066C50.8076 52.0208 50.8076 51.0711 51.3934 50.4853L59.8787 42L51.3934 33.5147C50.8076 32.9289 50.8076 31.9792 51.3934 31.3934C51.9792 30.8076 52.9289 30.8076 53.5147 31.3934L63.0607 40.9393ZM22 40.5L62 40.5L62 43.5L22 43.5L22 40.5Z" fill="white"/>
<circle cx="42" cy="42" r="41" transform="matrix(-1 0 0 1 84 0)" stroke="white" stroke-width="2"/>
</svg>
