<svg width="496" height="56" viewBox="0 0 496 56" fill="none" xmlns="http://www.w3.org/2000/svg">
<rect x="0.5" y="0.5" width="495" height="55" rx="27.5" fill="white"/>
<path d="M36 17C38.3869 17 40.6761 17.9934 42.364 19.7616C44.0518 21.5298 45 23.928 45 26.4286C45 30.934 42.0975 35.081 36.402 38.8776C36.2818 38.9575 36.1424 39 36 39C35.8576 39 35.7182 38.9575 35.598 38.8776C29.9025 35.081 27 30.934 27 26.4286C27 23.928 27.9482 21.5298 29.636 19.7616C31.3239 17.9934 33.6131 17 36 17V17ZM36 23.2858C35.2044 23.2858 34.4413 23.6169 33.8787 24.2063C33.3161 24.7957 33 25.5951 33 26.4286C33 27.2622 33.3161 28.0616 33.8787 28.651C34.4413 29.2404 35.2044 29.5715 36 29.5715C36.7956 29.5715 37.5587 29.2404 38.1213 28.651C38.6839 28.0616 39 27.2622 39 26.4286C39 25.5951 38.6839 24.7957 38.1213 24.2063C37.5587 23.6169 36.7956 23.2858 36 23.2858V23.2858Z" fill="#F2994A"/>
<path d="M68.396 33.14C66.8093 33.14 65.5773 32.5053 64.7 31.236L65.736 30.046C66.1933 30.6993 66.632 31.152 67.052 31.404C67.472 31.656 67.9713 31.782 68.55 31.782C69.082 31.782 69.53 31.6607 69.894 31.418C70.2673 31.1753 70.454 30.8627 70.454 30.48C70.454 30.0507 70.272 29.7007 69.908 29.43C69.544 29.15 68.97 28.9353 68.186 28.786C66.1887 28.394 65.19 27.4 65.19 25.804C65.19 25.272 65.3393 24.8007 65.638 24.39C65.9367 23.9793 66.338 23.6573 66.842 23.424C67.3553 23.1813 67.9293 23.06 68.564 23.06C70.104 23.06 71.21 23.634 71.882 24.782L70.818 25.832C70.538 25.3747 70.202 25.0247 69.81 24.782C69.4273 24.5393 68.998 24.418 68.522 24.418C67.9807 24.418 67.542 24.544 67.206 24.796C66.87 25.0387 66.702 25.3607 66.702 25.762C66.702 26.1633 66.8513 26.49 67.15 26.742C67.458 26.9847 67.9807 27.1807 68.718 27.33C69.7447 27.5447 70.5427 27.89 71.112 28.366C71.6813 28.842 71.966 29.416 71.966 30.088C71.966 31.0213 71.644 31.7633 71 32.314C70.3653 32.8647 69.4973 33.14 68.396 33.14ZM77.1743 33.14C76.4183 33.14 75.7463 32.9813 75.1583 32.664C74.5797 32.3373 74.1223 31.894 73.7863 31.334C73.4597 30.774 73.2963 30.13 73.2963 29.402C73.2963 28.6273 73.455 27.9507 73.7723 27.372C74.099 26.784 74.5423 26.3267 75.1023 26C75.6717 25.664 76.3203 25.4913 77.0483 25.482C77.683 25.4913 78.2523 25.65 78.7563 25.958C79.2697 26.266 79.671 26.686 79.9603 27.218C80.259 27.75 80.399 28.3613 80.3803 29.052L80.3663 29.668H74.7383C74.8223 30.3307 75.093 30.858 75.5503 31.25C76.017 31.6327 76.605 31.824 77.3143 31.824C77.6783 31.824 78.0143 31.7633 78.3223 31.642C78.6397 31.5207 78.9803 31.3013 79.3443 30.984L80.0723 32.006C79.727 32.342 79.2883 32.6173 78.7563 32.832C78.2243 33.0373 77.697 33.14 77.1743 33.14ZM77.0483 26.812C75.7883 26.812 75.037 27.3813 74.7943 28.52H78.9103V28.422C78.8823 28.114 78.7797 27.8387 78.6023 27.596C78.425 27.3533 78.201 27.162 77.9303 27.022C77.6597 26.882 77.3657 26.812 77.0483 26.812ZM84.7755 33.14C84.1688 33.14 83.6135 32.972 83.1095 32.636C82.6148 32.3 82.2181 31.8427 81.9195 31.264C81.6208 30.6853 81.4715 30.032 81.4715 29.304C81.4715 28.5667 81.6208 27.9133 81.9195 27.344C82.2275 26.7653 82.6381 26.3127 83.1515 25.986C83.6741 25.6593 84.2575 25.496 84.9015 25.496C85.4521 25.496 85.9375 25.6173 86.3575 25.86C86.7868 26.0933 87.1135 26.3967 87.3375 26.77V25.65H88.7935V33H87.3375V31.866C87.0855 32.2207 86.7261 32.524 86.2595 32.776C85.8021 33.0187 85.3075 33.14 84.7755 33.14ZM85.1535 31.81C85.5921 31.81 85.9795 31.7027 86.3155 31.488C86.6515 31.2733 86.9128 30.9793 87.0995 30.606C87.2955 30.2233 87.3935 29.7893 87.3935 29.304C87.3935 28.828 87.2955 28.4033 87.0995 28.03C86.9128 27.6567 86.6515 27.3627 86.3155 27.148C85.9795 26.9333 85.5921 26.826 85.1535 26.826C84.7241 26.826 84.3415 26.9333 84.0055 27.148C83.6788 27.3627 83.4175 27.6567 83.2215 28.03C83.0348 28.4033 82.9415 28.828 82.9415 29.304C82.9415 29.7893 83.0348 30.2233 83.2215 30.606C83.4175 30.9793 83.6788 31.2733 84.0055 31.488C84.3415 31.7027 84.7241 31.81 85.1535 31.81ZM90.8068 33V25.65H92.2628V27.036C92.4775 26.5973 92.7902 26.2333 93.2008 25.944C93.6115 25.6453 94.0455 25.496 94.5028 25.496C94.6615 25.496 94.8108 25.51 94.9508 25.538C95.1002 25.566 95.2168 25.5987 95.3008 25.636L94.9228 27.204C94.8108 27.1573 94.6848 27.12 94.5448 27.092C94.4142 27.0547 94.2835 27.036 94.1528 27.036C93.8168 27.036 93.5042 27.12 93.2148 27.288C92.9348 27.456 92.7062 27.6847 92.5288 27.974C92.3515 28.2633 92.2628 28.5853 92.2628 28.94V33H90.8068ZM99.2609 33.14C98.5795 33.14 97.9682 32.972 97.4269 32.636C96.8949 32.3 96.4702 31.8427 96.1529 31.264C95.8449 30.6853 95.6909 30.0367 95.6909 29.318C95.6909 28.5993 95.8449 27.9507 96.1529 27.372C96.4702 26.7933 96.8949 26.336 97.4269 26C97.9682 25.664 98.5795 25.496 99.2609 25.496C99.9142 25.496 100.507 25.6313 101.039 25.902C101.58 26.1633 101.991 26.5227 102.271 26.98L101.473 27.96C101.249 27.6333 100.936 27.358 100.535 27.134C100.143 26.91 99.7649 26.798 99.4009 26.798C98.9529 26.798 98.5515 26.91 98.1969 27.134C97.8515 27.3487 97.5762 27.6473 97.3709 28.03C97.1655 28.4127 97.0629 28.842 97.0629 29.318C97.0629 29.794 97.1702 30.2233 97.3849 30.606C97.5995 30.9793 97.8842 31.278 98.2389 31.502C98.5935 31.726 98.9855 31.838 99.4149 31.838C100.171 31.838 100.857 31.4647 101.473 30.718L102.271 31.698C101.972 32.118 101.543 32.4633 100.983 32.734C100.432 33.0047 99.8582 33.14 99.2609 33.14ZM103.631 33V22.64H105.073V26.798C105.316 26.434 105.656 26.126 106.095 25.874C106.543 25.622 107.005 25.496 107.481 25.496C109.161 25.496 110.001 26.504 110.001 28.52V33H108.559V28.618C108.559 27.358 108.041 26.756 107.005 26.812C106.641 26.812 106.31 26.8913 106.011 27.05C105.722 27.1993 105.493 27.4047 105.325 27.666C105.157 27.9273 105.073 28.2213 105.073 28.548V33H103.631ZM116.679 33V27.106H115.503V25.776H116.679V24.824C116.679 24.1893 116.88 23.6713 117.281 23.27C117.692 22.8593 118.219 22.654 118.863 22.654C119.162 22.654 119.442 22.71 119.703 22.822C119.964 22.934 120.174 23.0833 120.333 23.27L119.843 24.376C119.722 24.264 119.586 24.1753 119.437 24.11C119.297 24.0353 119.162 23.998 119.031 23.998C118.434 23.998 118.135 24.2733 118.135 24.824V25.776H119.871V27.106H118.135V33H116.679ZM124.408 33.14C123.689 33.14 123.045 32.9767 122.476 32.65C121.916 32.314 121.472 31.8613 121.146 31.292C120.819 30.7133 120.656 30.0553 120.656 29.318C120.656 28.5807 120.819 27.9273 121.146 27.358C121.472 26.7793 121.916 26.3267 122.476 26C123.045 25.664 123.689 25.496 124.408 25.496C125.117 25.496 125.752 25.664 126.312 26C126.881 26.3267 127.329 26.7793 127.656 27.358C127.982 27.9273 128.146 28.5807 128.146 29.318C128.146 30.0553 127.982 30.7133 127.656 31.292C127.329 31.8613 126.881 32.314 126.312 32.65C125.752 32.9767 125.117 33.14 124.408 33.14ZM124.408 31.824C124.846 31.824 125.238 31.7167 125.584 31.502C125.929 31.278 126.2 30.9793 126.396 30.606C126.592 30.2233 126.685 29.794 126.676 29.318C126.685 28.8327 126.592 28.4033 126.396 28.03C126.2 27.6473 125.929 27.3487 125.584 27.134C125.238 26.9193 124.846 26.812 124.408 26.812C123.969 26.812 123.572 26.924 123.218 27.148C122.872 27.3627 122.602 27.6613 122.406 28.044C122.21 28.4173 122.116 28.842 122.126 29.318C122.116 29.794 122.21 30.2233 122.406 30.606C122.602 30.9793 122.872 31.278 123.218 31.502C123.572 31.7167 123.969 31.824 124.408 31.824ZM129.717 33V25.65H131.173V27.036C131.388 26.5973 131.7 26.2333 132.111 25.944C132.522 25.6453 132.956 25.496 133.413 25.496C133.572 25.496 133.721 25.51 133.861 25.538C134.01 25.566 134.127 25.5987 134.211 25.636L133.833 27.204C133.721 27.1573 133.595 27.12 133.455 27.092C133.324 27.0547 133.194 27.036 133.063 27.036C132.727 27.036 132.414 27.12 132.125 27.288C131.845 27.456 131.616 27.6847 131.439 27.974C131.262 28.2633 131.173 28.5853 131.173 28.94V33H129.717ZM140.197 33V27.05H138.671V25.65H140.197V23.774H141.639V25.65H143.347V27.05H141.639V33H140.197ZM144.66 33V22.64H146.102V26.798C146.345 26.434 146.686 26.126 147.124 25.874C147.572 25.622 148.034 25.496 148.51 25.496C150.19 25.496 151.03 26.504 151.03 28.52V33H149.588V28.618C149.588 27.358 149.07 26.756 148.034 26.812C147.67 26.812 147.339 26.8913 147.04 27.05C146.751 27.1993 146.522 27.4047 146.354 27.666C146.186 27.9273 146.102 28.2213 146.102 28.548V33H144.66ZM156.417 33.14C155.661 33.14 154.989 32.9813 154.401 32.664C153.822 32.3373 153.365 31.894 153.029 31.334C152.702 30.774 152.539 30.13 152.539 29.402C152.539 28.6273 152.697 27.9507 153.015 27.372C153.341 26.784 153.785 26.3267 154.345 26C154.914 25.664 155.563 25.4913 156.291 25.482C156.925 25.4913 157.495 25.65 157.999 25.958C158.512 26.266 158.913 26.686 159.203 27.218C159.501 27.75 159.641 28.3613 159.623 29.052L159.609 29.668H153.981C154.065 30.3307 154.335 30.858 154.793 31.25C155.259 31.6327 155.847 31.824 156.557 31.824C156.921 31.824 157.257 31.7633 157.565 31.642C157.882 31.5207 158.223 31.3013 158.587 30.984L159.315 32.006C158.969 32.342 158.531 32.6173 157.999 32.832C157.467 33.0373 156.939 33.14 156.417 33.14ZM156.291 26.812C155.031 26.812 154.279 27.3813 154.037 28.52H158.153V28.422C158.125 28.114 158.022 27.8387 157.845 27.596C157.667 27.3533 157.443 27.162 157.173 27.022C156.902 26.882 156.608 26.812 156.291 26.812ZM165.141 33V22.64H166.583V33H165.141ZM171.794 33.14C171.076 33.14 170.432 32.9767 169.862 32.65C169.302 32.314 168.859 31.8613 168.532 31.292C168.206 30.7133 168.042 30.0553 168.042 29.318C168.042 28.5807 168.206 27.9273 168.532 27.358C168.859 26.7793 169.302 26.3267 169.862 26C170.432 25.664 171.076 25.496 171.794 25.496C172.504 25.496 173.138 25.664 173.698 26C174.268 26.3267 174.716 26.7793 175.042 27.358C175.369 27.9273 175.532 28.5807 175.532 29.318C175.532 30.0553 175.369 30.7133 175.042 31.292C174.716 31.8613 174.268 32.314 173.698 32.65C173.138 32.9767 172.504 33.14 171.794 33.14ZM171.794 31.824C172.233 31.824 172.625 31.7167 172.97 31.502C173.316 31.278 173.586 30.9793 173.782 30.606C173.978 30.2233 174.072 29.794 174.062 29.318C174.072 28.8327 173.978 28.4033 173.782 28.03C173.586 27.6473 173.316 27.3487 172.97 27.134C172.625 26.9193 172.233 26.812 171.794 26.812C171.356 26.812 170.959 26.924 170.604 27.148C170.259 27.3627 169.988 27.6613 169.792 28.044C169.596 28.4173 169.503 28.842 169.512 29.318C169.503 29.794 169.596 30.2233 169.792 30.606C169.988 30.9793 170.259 31.278 170.604 31.502C170.959 31.7167 171.356 31.824 171.794 31.824ZM180.226 33.14C179.544 33.14 178.933 32.972 178.392 32.636C177.86 32.3 177.435 31.8427 177.118 31.264C176.81 30.6853 176.656 30.0367 176.656 29.318C176.656 28.5993 176.81 27.9507 177.118 27.372C177.435 26.7933 177.86 26.336 178.392 26C178.933 25.664 179.544 25.496 180.226 25.496C180.879 25.496 181.472 25.6313 182.004 25.902C182.545 26.1633 182.956 26.5227 183.236 26.98L182.438 27.96C182.214 27.6333 181.901 27.358 181.5 27.134C181.108 26.91 180.73 26.798 180.366 26.798C179.918 26.798 179.516 26.91 179.162 27.134C178.816 27.3487 178.541 27.6473 178.336 28.03C178.13 28.4127 178.028 28.842 178.028 29.318C178.028 29.794 178.135 30.2233 178.35 30.606C178.564 30.9793 178.849 31.278 179.204 31.502C179.558 31.726 179.95 31.838 180.38 31.838C181.136 31.838 181.822 31.4647 182.438 30.718L183.236 31.698C182.937 32.118 182.508 32.4633 181.948 32.734C181.397 33.0047 180.823 33.14 180.226 33.14ZM187.424 33.14C186.817 33.14 186.262 32.972 185.758 32.636C185.263 32.3 184.867 31.8427 184.568 31.264C184.269 30.6853 184.12 30.032 184.12 29.304C184.12 28.5667 184.269 27.9133 184.568 27.344C184.876 26.7653 185.287 26.3127 185.8 25.986C186.323 25.6593 186.906 25.496 187.55 25.496C188.101 25.496 188.586 25.6173 189.006 25.86C189.435 26.0933 189.762 26.3967 189.986 26.77V25.65H191.442V33H189.986V31.866C189.734 32.2207 189.375 32.524 188.908 32.776C188.451 33.0187 187.956 33.14 187.424 33.14ZM187.802 31.81C188.241 31.81 188.628 31.7027 188.964 31.488C189.3 31.2733 189.561 30.9793 189.748 30.606C189.944 30.2233 190.042 29.7893 190.042 29.304C190.042 28.828 189.944 28.4033 189.748 28.03C189.561 27.6567 189.3 27.3627 188.964 27.148C188.628 26.9333 188.241 26.826 187.802 26.826C187.373 26.826 186.99 26.9333 186.654 27.148C186.327 27.3627 186.066 27.6567 185.87 28.03C185.683 28.4033 185.59 28.828 185.59 29.304C185.59 29.7893 185.683 30.2233 185.87 30.606C186.066 30.9793 186.327 31.2733 186.654 31.488C186.99 31.7027 187.373 31.81 187.802 31.81ZM194.365 33V27.05H192.839V25.65H194.365V23.774H195.807V25.65H197.515V27.05H195.807V33H194.365ZM199.794 24.026C199.486 24.026 199.248 23.9467 199.08 23.788C198.912 23.6293 198.828 23.4053 198.828 23.116C198.828 22.8453 198.912 22.626 199.08 22.458C199.258 22.29 199.496 22.206 199.794 22.206C200.102 22.206 200.34 22.2853 200.508 22.444C200.676 22.6027 200.76 22.8267 200.76 23.116C200.76 23.3867 200.672 23.606 200.494 23.774C200.326 23.942 200.093 24.026 199.794 24.026ZM199.094 33V25.65H200.536V33H199.094ZM206.029 33.14C205.31 33.14 204.666 32.9767 204.097 32.65C203.537 32.314 203.093 31.8613 202.767 31.292C202.44 30.7133 202.277 30.0553 202.277 29.318C202.277 28.5807 202.44 27.9273 202.767 27.358C203.093 26.7793 203.537 26.3267 204.097 26C204.666 25.664 205.31 25.496 206.029 25.496C206.738 25.496 207.373 25.664 207.933 26C208.502 26.3267 208.95 26.7793 209.277 27.358C209.603 27.9273 209.767 28.5807 209.767 29.318C209.767 30.0553 209.603 30.7133 209.277 31.292C208.95 31.8613 208.502 32.314 207.933 32.65C207.373 32.9767 206.738 33.14 206.029 33.14ZM206.029 31.824C206.467 31.824 206.859 31.7167 207.205 31.502C207.55 31.278 207.821 30.9793 208.017 30.606C208.213 30.2233 208.306 29.794 208.297 29.318C208.306 28.8327 208.213 28.4033 208.017 28.03C207.821 27.6473 207.55 27.3487 207.205 27.134C206.859 26.9193 206.467 26.812 206.029 26.812C205.59 26.812 205.193 26.924 204.839 27.148C204.493 27.3627 204.223 27.6613 204.027 28.044C203.831 28.4173 203.737 28.842 203.747 29.318C203.737 29.794 203.831 30.2233 204.027 30.606C204.223 30.9793 204.493 31.278 204.839 31.502C205.193 31.7167 205.59 31.824 206.029 31.824ZM211.338 33V25.65H212.78V26.798C213.023 26.434 213.363 26.126 213.802 25.874C214.25 25.622 214.712 25.496 215.188 25.496C216.868 25.496 217.708 26.504 217.708 28.52V33H216.266V28.618C216.266 27.358 215.748 26.756 214.712 26.812C214.348 26.812 214.017 26.8913 213.718 27.05C213.429 27.1993 213.2 27.4047 213.032 27.666C212.864 27.9273 212.78 28.2213 212.78 28.548V33H211.338ZM224.82 36.22L226.066 33.35L222.65 25.65H224.33L226.626 31.054C226.673 31.1567 226.733 31.32 226.808 31.544L227.018 30.956L228.936 25.65H230.644L227.62 33L226.374 36.22H224.82ZM234.89 33.14C234.171 33.14 233.527 32.9767 232.958 32.65C232.398 32.314 231.955 31.8613 231.628 31.292C231.301 30.7133 231.138 30.0553 231.138 29.318C231.138 28.5807 231.301 27.9273 231.628 27.358C231.955 26.7793 232.398 26.3267 232.958 26C233.527 25.664 234.171 25.496 234.89 25.496C235.599 25.496 236.234 25.664 236.794 26C237.363 26.3267 237.811 26.7793 238.138 27.358C238.465 27.9273 238.628 28.5807 238.628 29.318C238.628 30.0553 238.465 30.7133 238.138 31.292C237.811 31.8613 237.363 32.314 236.794 32.65C236.234 32.9767 235.599 33.14 234.89 33.14ZM234.89 31.824C235.329 31.824 235.721 31.7167 236.066 31.502C236.411 31.278 236.682 30.9793 236.878 30.606C237.074 30.2233 237.167 29.794 237.158 29.318C237.167 28.8327 237.074 28.4033 236.878 28.03C236.682 27.6473 236.411 27.3487 236.066 27.134C235.721 26.9193 235.329 26.812 234.89 26.812C234.451 26.812 234.055 26.924 233.7 27.148C233.355 27.3627 233.084 27.6613 232.888 28.044C232.692 28.4173 232.599 28.842 232.608 29.318C232.599 29.794 232.692 30.2233 232.888 30.606C233.084 30.9793 233.355 31.278 233.7 31.502C234.055 31.7167 234.451 31.824 234.89 31.824ZM242.775 33.14C241.991 33.14 241.366 32.874 240.899 32.342C240.433 31.81 240.199 31.0913 240.199 30.186V25.65H241.641V29.794C241.641 30.438 241.791 30.9467 242.089 31.32C242.397 31.6933 242.822 31.88 243.363 31.88C243.895 31.88 244.334 31.712 244.679 31.376C245.034 31.04 245.211 30.606 245.211 30.074V25.65H246.653V33H245.211V31.824C244.969 32.216 244.628 32.5333 244.189 32.776C243.76 33.0187 243.289 33.14 242.775 33.14ZM254.406 33L251.9 25.65L253.356 25.636L255.008 30.704L256.772 26.812H257.64L259.39 30.648L261.028 25.65H262.484L260.006 33H259.012L257.136 28.73L255.386 33H254.406ZM266.42 33.14C265.813 33.14 265.258 32.972 264.754 32.636C264.259 32.3 263.863 31.8427 263.564 31.264C263.265 30.6853 263.116 30.032 263.116 29.304C263.116 28.5667 263.265 27.9133 263.564 27.344C263.872 26.7653 264.283 26.3127 264.796 25.986C265.319 25.6593 265.902 25.496 266.546 25.496C267.097 25.496 267.582 25.6173 268.002 25.86C268.431 26.0933 268.758 26.3967 268.982 26.77V25.65H270.438V33H268.982V31.866C268.73 32.2207 268.371 32.524 267.904 32.776C267.447 33.0187 266.952 33.14 266.42 33.14ZM266.798 31.81C267.237 31.81 267.624 31.7027 267.96 31.488C268.296 31.2733 268.557 30.9793 268.744 30.606C268.94 30.2233 269.038 29.7893 269.038 29.304C269.038 28.828 268.94 28.4033 268.744 28.03C268.557 27.6567 268.296 27.3627 267.96 27.148C267.624 26.9333 267.237 26.826 266.798 26.826C266.369 26.826 265.986 26.9333 265.65 27.148C265.323 27.3627 265.062 27.6567 264.866 28.03C264.679 28.4033 264.586 28.828 264.586 29.304C264.586 29.7893 264.679 30.2233 264.866 30.606C265.062 30.9793 265.323 31.2733 265.65 31.488C265.986 31.7027 266.369 31.81 266.798 31.81ZM272.451 33V25.65H273.893V26.798C274.136 26.434 274.477 26.126 274.915 25.874C275.363 25.622 275.825 25.496 276.301 25.496C277.981 25.496 278.821 26.504 278.821 28.52V33H277.379V28.618C277.379 27.358 276.861 26.756 275.825 26.812C275.461 26.812 275.13 26.8913 274.831 27.05C274.542 27.1993 274.313 27.4047 274.145 27.666C273.977 27.9273 273.893 28.2213 273.893 28.548V33H272.451ZM281.688 33V27.05H280.162V25.65H281.688V23.774H283.13V25.65H284.838V27.05H283.13V33H281.688ZM286.361 29.626C286.258 28.7487 286.174 27.8293 286.109 26.868C286.053 25.8973 286.025 25.0013 286.025 24.18V23.2H287.537V24.18C287.537 24.7587 287.523 25.3653 287.495 26C287.467 26.6347 287.425 27.2647 287.369 27.89C287.322 28.506 287.266 29.0847 287.201 29.626H286.361ZM286.739 33.154C286.431 33.154 286.193 33.0653 286.025 32.888C285.857 32.7013 285.773 32.44 285.773 32.104C285.773 31.796 285.861 31.544 286.039 31.348C286.216 31.152 286.449 31.054 286.739 31.054C287.047 31.054 287.285 31.1473 287.453 31.334C287.621 31.5113 287.705 31.768 287.705 32.104C287.705 32.412 287.616 32.664 287.439 32.86C287.261 33.056 287.028 33.154 286.739 33.154Z" fill="#888B97"/>
<rect x="383" y="4" width="109" height="48" rx="24" fill="#F2994A"/>
<path d="M403.452 33.14C402.547 33.14 401.767 32.9767 401.114 32.65C400.47 32.314 399.919 31.8333 399.462 31.208L400.736 29.766C401.193 30.4007 401.646 30.8347 402.094 31.068C402.542 31.292 403.037 31.404 403.578 31.404C404.017 31.404 404.385 31.3107 404.684 31.124C404.992 30.9373 405.146 30.6853 405.146 30.368C405.146 29.9853 404.95 29.6867 404.558 29.472C404.175 29.248 403.681 29.0753 403.074 28.954C402.019 28.73 401.235 28.3707 400.722 27.876C400.209 27.3813 399.952 26.7233 399.952 25.902C399.952 25.3327 400.115 24.8333 400.442 24.404C400.769 23.9653 401.198 23.6247 401.73 23.382C402.271 23.1393 402.869 23.018 403.522 23.018C404.39 23.018 405.109 23.1673 405.678 23.466C406.257 23.7553 406.714 24.1707 407.05 24.712L405.748 25.986C405.169 25.1647 404.432 24.754 403.536 24.754C403.069 24.754 402.691 24.852 402.402 25.048C402.122 25.2347 401.982 25.4913 401.982 25.818C401.982 26.1633 402.145 26.434 402.472 26.63C402.808 26.826 403.256 26.98 403.816 27.092C404.843 27.3067 405.655 27.652 406.252 28.128C406.859 28.5947 407.162 29.2247 407.162 30.018C407.162 30.6713 407.003 31.2313 406.686 31.698C406.378 32.1647 405.944 32.524 405.384 32.776C404.833 33.0187 404.189 33.14 403.452 33.14ZM412.312 33.14C411.519 33.14 410.824 32.9767 410.226 32.65C409.629 32.3233 409.162 31.8753 408.826 31.306C408.5 30.7367 408.336 30.0833 408.336 29.346C408.336 28.5807 408.495 27.9087 408.812 27.33C409.139 26.742 409.582 26.28 410.142 25.944C410.712 25.608 411.365 25.44 412.102 25.44C412.765 25.44 413.358 25.6033 413.88 25.93C414.412 26.2473 414.823 26.6813 415.112 27.232C415.411 27.7827 415.551 28.4127 415.532 29.122L415.518 29.724H410.198C410.301 30.256 410.553 30.676 410.954 30.984C411.365 31.292 411.883 31.446 412.508 31.446C412.844 31.446 413.148 31.3947 413.418 31.292C413.698 31.1893 413.997 31.0073 414.314 30.746L415.238 32.034C414.837 32.3887 414.375 32.664 413.852 32.86C413.339 33.0467 412.826 33.14 412.312 33.14ZM412.116 27.092C411.062 27.092 410.427 27.568 410.212 28.52H413.712V28.464C413.684 28.0627 413.516 27.736 413.208 27.484C412.91 27.2227 412.546 27.092 412.116 27.092ZM419.801 33.14C419.185 33.14 418.63 32.972 418.135 32.636C417.641 32.3 417.244 31.8427 416.945 31.264C416.656 30.6853 416.511 30.0273 416.511 29.29C416.511 28.534 416.656 27.8713 416.945 27.302C417.244 26.7233 417.645 26.2707 418.149 25.944C418.663 25.6173 419.241 25.454 419.885 25.454C420.408 25.454 420.865 25.5613 421.257 25.776C421.649 25.9813 421.962 26.252 422.195 26.588V25.608H424.099V33H422.181V32.006C421.92 32.3327 421.579 32.6033 421.159 32.818C420.749 33.0327 420.296 33.14 419.801 33.14ZM420.319 31.474C420.889 31.474 421.351 31.2733 421.705 30.872C422.06 30.4707 422.237 29.9433 422.237 29.29C422.237 28.6367 422.06 28.1093 421.705 27.708C421.351 27.3067 420.889 27.106 420.319 27.106C419.759 27.106 419.302 27.3067 418.947 27.708C418.602 28.1093 418.429 28.6367 418.429 29.29C418.429 29.9433 418.602 30.4707 418.947 30.872C419.302 31.2733 419.759 31.474 420.319 31.474ZM426.094 33V25.608H427.942L427.97 26.826C428.212 26.4247 428.53 26.098 428.922 25.846C429.323 25.5847 429.743 25.454 430.182 25.454C430.35 25.454 430.504 25.468 430.644 25.496C430.793 25.5147 430.919 25.5427 431.022 25.58L430.504 27.68C430.401 27.624 430.27 27.5773 430.112 27.54C429.953 27.5027 429.794 27.484 429.636 27.484C429.178 27.484 428.791 27.6427 428.474 27.96C428.166 28.268 428.012 28.66 428.012 29.136V33H426.094ZM435.042 33.14C434.342 33.14 433.712 32.972 433.152 32.636C432.601 32.3 432.162 31.8427 431.836 31.264C431.518 30.6853 431.36 30.0273 431.36 29.29C431.36 28.562 431.518 27.9087 431.836 27.33C432.162 26.7513 432.601 26.294 433.152 25.958C433.712 25.622 434.342 25.454 435.042 25.454C435.704 25.454 436.306 25.5753 436.848 25.818C437.398 26.0607 437.828 26.4013 438.136 26.84L437.086 28.1C436.89 27.8293 436.619 27.6007 436.274 27.414C435.928 27.218 435.578 27.12 435.224 27.12C434.832 27.12 434.482 27.218 434.174 27.414C433.875 27.6007 433.637 27.8573 433.46 28.184C433.292 28.5107 433.208 28.8793 433.208 29.29C433.208 29.7007 433.296 30.0693 433.474 30.396C433.651 30.7227 433.894 30.984 434.202 31.18C434.51 31.3667 434.855 31.46 435.238 31.46C435.602 31.46 435.938 31.3807 436.246 31.222C436.554 31.054 436.834 30.8207 437.086 30.522L438.136 31.782C437.818 32.1927 437.38 32.524 436.82 32.776C436.26 33.0187 435.667 33.14 435.042 33.14ZM439.41 33V22.64H441.3V26.574C441.552 26.2473 441.883 25.9813 442.294 25.776C442.714 25.5613 443.153 25.454 443.61 25.454C445.309 25.454 446.158 26.462 446.158 28.478V33H444.254V28.618C444.254 27.5633 443.811 27.0547 442.924 27.092C442.467 27.092 442.084 27.232 441.776 27.512C441.477 27.792 441.328 28.1373 441.328 28.548V33H439.41Z" fill="white"/>
<path d="M461.993 21.0018C461.762 21.0013 461.537 21.0825 461.359 21.2313C461.258 21.3151 461.175 21.4179 461.114 21.534C461.054 21.6501 461.016 21.7771 461.004 21.9078C460.992 22.0385 461.006 22.1703 461.045 22.2956C461.083 22.4209 461.146 22.5374 461.23 22.6382L465.672 27.9863L461.388 33.3444C461.306 33.4465 461.245 33.5639 461.207 33.69C461.17 33.8161 461.158 33.9482 461.172 34.079C461.186 34.2097 461.225 34.3364 461.288 34.4518C461.351 34.5672 461.435 34.669 461.537 34.7513C461.64 34.8421 461.76 34.9107 461.89 34.9526C462.02 34.9945 462.158 35.0088 462.294 34.9948C462.43 34.9807 462.561 34.9385 462.68 34.8709C462.799 34.8032 462.903 34.7116 462.985 34.6016L467.774 28.6149C467.92 28.4364 468 28.2124 468 27.9813C468 27.7502 467.92 27.5263 467.774 27.3477L462.816 21.361C462.717 21.2403 462.591 21.1448 462.448 21.0824C462.305 21.02 462.149 20.9924 461.993 21.0018Z" fill="white"/>
<rect x="0.5" y="0.5" width="495" height="55" rx="27.5" stroke="#E0E3EB"/>
</svg>
