<svg width="457" height="118" viewBox="0 0 457 118" fill="none" xmlns="http://www.w3.org/2000/svg">
<g filter="url(#filter0_d_4_392)">
<rect x="32" y="23" width="393" height="54" rx="27" fill="white"/>
<path d="M75 42H61C60.2044 42 59.4413 42.3161 58.8787 42.8787C58.3161 43.4413 58 44.2044 58 45V55C58 55.7956 58.3161 56.5587 58.8787 57.1213C59.4413 57.6839 60.2044 58 61 58H75C75.7956 58 76.5587 57.6839 77.1213 57.1213C77.6839 56.5587 78 55.7956 78 55V45C78 44.2044 77.6839 43.4413 77.1213 42.8787C76.5587 42.3161 75.7956 42 75 42ZM75 44L68.5 48.47C68.348 48.5578 68.1755 48.604 68 48.604C67.8245 48.604 67.652 48.5578 67.5 48.47L61 44H75Z" fill="#27AE60"/>
<path d="M100.004 55V50.66L96.14 45.2H97.96L100.788 49.26L103.364 45.2H105.1L101.516 50.632V55H100.004ZM108.433 55.14C107.714 55.14 107.07 54.9767 106.501 54.65C105.941 54.314 105.498 53.8613 105.171 53.292C104.844 52.7133 104.681 52.0553 104.681 51.318C104.681 50.5807 104.844 49.9273 105.171 49.358C105.498 48.7793 105.941 48.3267 106.501 48C107.07 47.664 107.714 47.496 108.433 47.496C109.142 47.496 109.777 47.664 110.337 48C110.906 48.3267 111.354 48.7793 111.681 49.358C112.008 49.9273 112.171 50.5807 112.171 51.318C112.171 52.0553 112.008 52.7133 111.681 53.292C111.354 53.8613 110.906 54.314 110.337 54.65C109.777 54.9767 109.142 55.14 108.433 55.14ZM108.433 53.824C108.872 53.824 109.264 53.7167 109.609 53.502C109.954 53.278 110.225 52.9793 110.421 52.606C110.617 52.2233 110.71 51.794 110.701 51.318C110.71 50.8327 110.617 50.4033 110.421 50.03C110.225 49.6473 109.954 49.3487 109.609 49.134C109.264 48.9193 108.872 48.812 108.433 48.812C107.994 48.812 107.598 48.924 107.243 49.148C106.898 49.3627 106.627 49.6613 106.431 50.044C106.235 50.4173 106.142 50.842 106.151 51.318C106.142 51.794 106.235 52.2233 106.431 52.606C106.627 52.9793 106.898 53.278 107.243 53.502C107.598 53.7167 107.994 53.824 108.433 53.824ZM116.318 55.14C115.534 55.14 114.909 54.874 114.442 54.342C113.976 53.81 113.742 53.0913 113.742 52.186V47.65H115.184V51.794C115.184 52.438 115.334 52.9467 115.632 53.32C115.94 53.6933 116.365 53.88 116.906 53.88C117.438 53.88 117.877 53.712 118.222 53.376C118.577 53.04 118.754 52.606 118.754 52.074V47.65H120.196V55H118.754V53.824C118.512 54.216 118.171 54.5333 117.732 54.776C117.303 55.0187 116.832 55.14 116.318 55.14ZM122.219 55V47.65H123.675V49.036C123.89 48.5973 124.202 48.2333 124.613 47.944C125.024 47.6453 125.458 47.496 125.915 47.496C126.074 47.496 126.223 47.51 126.363 47.538C126.512 47.566 126.629 47.5987 126.713 47.636L126.335 49.204C126.223 49.1573 126.097 49.12 125.957 49.092C125.826 49.0547 125.696 49.036 125.565 49.036C125.229 49.036 124.916 49.12 124.627 49.288C124.347 49.456 124.118 49.6847 123.941 49.974C123.764 50.2633 123.675 50.5853 123.675 50.94V55H122.219ZM135.219 55.14C134.463 55.14 133.791 54.9813 133.203 54.664C132.625 54.3373 132.167 53.894 131.831 53.334C131.505 52.774 131.341 52.13 131.341 51.402C131.341 50.6273 131.5 49.9507 131.817 49.372C132.144 48.784 132.587 48.3267 133.147 48C133.717 47.664 134.365 47.4913 135.093 47.482C135.728 47.4913 136.297 47.65 136.801 47.958C137.315 48.266 137.716 48.686 138.005 49.218C138.304 49.75 138.444 50.3613 138.425 51.052L138.411 51.668H132.783C132.867 52.3307 133.138 52.858 133.595 53.25C134.062 53.6327 134.65 53.824 135.359 53.824C135.723 53.824 136.059 53.7633 136.367 53.642C136.685 53.5207 137.025 53.3013 137.389 52.984L138.117 54.006C137.772 54.342 137.333 54.6173 136.801 54.832C136.269 55.0373 135.742 55.14 135.219 55.14ZM135.093 48.812C133.833 48.812 133.082 49.3813 132.839 50.52H136.955V50.422C136.927 50.114 136.825 49.8387 136.647 49.596C136.47 49.3533 136.246 49.162 135.975 49.022C135.705 48.882 135.411 48.812 135.093 48.812ZM139.964 55V47.65H141.42V48.812C141.654 48.4573 141.98 48.154 142.4 47.902C142.82 47.65 143.264 47.524 143.73 47.524C144.878 47.524 145.625 48.0373 145.97 49.064C146.11 48.784 146.316 48.5273 146.586 48.294C146.866 48.0607 147.17 47.874 147.496 47.734C147.832 47.594 148.168 47.524 148.504 47.524C150.138 47.524 150.954 48.546 150.954 50.59V55H149.498V50.674C149.498 50.0487 149.377 49.5913 149.134 49.302C148.901 49.0033 148.532 48.854 148.028 48.854C147.496 48.854 147.053 49.022 146.698 49.358C146.344 49.694 146.166 50.1093 146.166 50.604V55H144.71V50.646C144.71 50.0673 144.584 49.624 144.332 49.316C144.09 49.008 143.735 48.854 143.268 48.854C142.923 48.854 142.61 48.9333 142.33 49.092C142.05 49.2413 141.826 49.4467 141.658 49.708C141.5 49.96 141.42 50.2493 141.42 50.576V55H139.964ZM155.713 55.14C155.106 55.14 154.551 54.972 154.047 54.636C153.552 54.3 153.156 53.8427 152.857 53.264C152.558 52.6853 152.409 52.032 152.409 51.304C152.409 50.5667 152.558 49.9133 152.857 49.344C153.165 48.7653 153.576 48.3127 154.089 47.986C154.612 47.6593 155.195 47.496 155.839 47.496C156.39 47.496 156.875 47.6173 157.295 47.86C157.724 48.0933 158.051 48.3967 158.275 48.77V47.65H159.731V55H158.275V53.866C158.023 54.2207 157.664 54.524 157.197 54.776C156.74 55.0187 156.245 55.14 155.713 55.14ZM156.091 53.81C156.53 53.81 156.917 53.7027 157.253 53.488C157.589 53.2733 157.85 52.9793 158.037 52.606C158.233 52.2233 158.331 51.7893 158.331 51.304C158.331 50.828 158.233 50.4033 158.037 50.03C157.85 49.6567 157.589 49.3627 157.253 49.148C156.917 48.9333 156.53 48.826 156.091 48.826C155.662 48.826 155.279 48.9333 154.943 49.148C154.616 49.3627 154.355 49.6567 154.159 50.03C153.972 50.4033 153.879 50.828 153.879 51.304C153.879 51.7893 153.972 52.2233 154.159 52.606C154.355 52.9793 154.616 53.2733 154.943 53.488C155.279 53.7027 155.662 53.81 156.091 53.81ZM162.71 46.026C162.402 46.026 162.164 45.9467 161.996 45.788C161.828 45.6293 161.744 45.4053 161.744 45.116C161.744 44.8453 161.828 44.626 161.996 44.458C162.174 44.29 162.412 44.206 162.71 44.206C163.018 44.206 163.256 44.2853 163.424 44.444C163.592 44.6027 163.676 44.8267 163.676 45.116C163.676 45.3867 163.588 45.606 163.41 45.774C163.242 45.942 163.009 46.026 162.71 46.026ZM162.01 55V47.65H163.452V55H162.01ZM165.669 55V44.64H167.111V55H165.669ZM173.078 55V44.64H174.52V48.798C174.763 48.434 175.104 48.126 175.542 47.874C175.99 47.622 176.452 47.496 176.928 47.496C178.608 47.496 179.448 48.504 179.448 50.52V55H178.006V50.618C178.006 49.358 177.488 48.756 176.452 48.812C176.088 48.812 175.757 48.8913 175.458 49.05C175.169 49.1993 174.94 49.4047 174.772 49.666C174.604 49.9273 174.52 50.2213 174.52 50.548V55H173.078ZM184.834 55.14C184.078 55.14 183.406 54.9813 182.818 54.664C182.24 54.3373 181.782 53.894 181.446 53.334C181.12 52.774 180.956 52.13 180.956 51.402C180.956 50.6273 181.115 49.9507 181.432 49.372C181.759 48.784 182.202 48.3267 182.762 48C183.332 47.664 183.98 47.4913 184.708 47.482C185.343 47.4913 185.912 47.65 186.416 47.958C186.93 48.266 187.331 48.686 187.62 49.218C187.919 49.75 188.059 50.3613 188.04 51.052L188.026 51.668H182.398C182.482 52.3307 182.753 52.858 183.21 53.25C183.677 53.6327 184.265 53.824 184.974 53.824C185.338 53.824 185.674 53.7633 185.982 53.642C186.3 53.5207 186.64 53.3013 187.004 52.984L187.732 54.006C187.387 54.342 186.948 54.6173 186.416 54.832C185.884 55.0373 185.357 55.14 184.834 55.14ZM184.708 48.812C183.448 48.812 182.697 49.3813 182.454 50.52H186.57V50.422C186.542 50.114 186.44 49.8387 186.262 49.596C186.085 49.3533 185.861 49.162 185.59 49.022C185.32 48.882 185.026 48.812 184.708 48.812ZM189.608 55V47.65H191.064V49.036C191.278 48.5973 191.591 48.2333 192.002 47.944C192.412 47.6453 192.846 47.496 193.304 47.496C193.462 47.496 193.612 47.51 193.752 47.538C193.901 47.566 194.018 47.5987 194.102 47.636L193.724 49.204C193.612 49.1573 193.486 49.12 193.346 49.092C193.215 49.0547 193.084 49.036 192.954 49.036C192.618 49.036 192.305 49.12 192.016 49.288C191.736 49.456 191.507 49.6847 191.33 49.974C191.152 50.2633 191.064 50.5853 191.064 50.94V55H189.608ZM198.37 55.14C197.614 55.14 196.942 54.9813 196.354 54.664C195.775 54.3373 195.318 53.894 194.982 53.334C194.655 52.774 194.492 52.13 194.492 51.402C194.492 50.6273 194.65 49.9507 194.968 49.372C195.294 48.784 195.738 48.3267 196.298 48C196.867 47.664 197.516 47.4913 198.244 47.482C198.878 47.4913 199.448 47.65 199.952 47.958C200.465 48.266 200.866 48.686 201.156 49.218C201.454 49.75 201.594 50.3613 201.576 51.052L201.562 51.668H195.934C196.018 52.3307 196.288 52.858 196.746 53.25C197.212 53.6327 197.8 53.824 198.51 53.824C198.874 53.824 199.21 53.7633 199.518 53.642C199.835 53.5207 200.176 53.3013 200.54 52.984L201.268 54.006C200.922 54.342 200.484 54.6173 199.952 54.832C199.42 55.0373 198.892 55.14 198.37 55.14ZM198.244 48.812C196.984 48.812 196.232 49.3813 195.99 50.52H200.106V50.422C200.078 50.114 199.975 49.8387 199.798 49.596C199.62 49.3533 199.396 49.162 199.126 49.022C198.855 48.882 198.561 48.812 198.244 48.812Z" fill="#888B97"/>
<rect x="292" y="27" width="129" height="46" rx="23" fill="#F2994A"/>
<path d="M312.452 55.14C311.547 55.14 310.767 54.9767 310.114 54.65C309.47 54.314 308.919 53.8333 308.462 53.208L309.736 51.766C310.193 52.4007 310.646 52.8347 311.094 53.068C311.542 53.292 312.037 53.404 312.578 53.404C313.017 53.404 313.385 53.3107 313.684 53.124C313.992 52.9373 314.146 52.6853 314.146 52.368C314.146 51.9853 313.95 51.6867 313.558 51.472C313.175 51.248 312.681 51.0753 312.074 50.954C311.019 50.73 310.235 50.3707 309.722 49.876C309.209 49.3813 308.952 48.7233 308.952 47.902C308.952 47.3327 309.115 46.8333 309.442 46.404C309.769 45.9653 310.198 45.6247 310.73 45.382C311.271 45.1393 311.869 45.018 312.522 45.018C313.39 45.018 314.109 45.1673 314.678 45.466C315.257 45.7553 315.714 46.1707 316.05 46.712L314.748 47.986C314.169 47.1647 313.432 46.754 312.536 46.754C312.069 46.754 311.691 46.852 311.402 47.048C311.122 47.2347 310.982 47.4913 310.982 47.818C310.982 48.1633 311.145 48.434 311.472 48.63C311.808 48.826 312.256 48.98 312.816 49.092C313.843 49.3067 314.655 49.652 315.252 50.128C315.859 50.5947 316.162 51.2247 316.162 52.018C316.162 52.6713 316.003 53.2313 315.686 53.698C315.378 54.1647 314.944 54.524 314.384 54.776C313.833 55.0187 313.189 55.14 312.452 55.14ZM320.374 55.14C319.562 55.14 318.923 54.8787 318.456 54.356C317.999 53.824 317.77 53.096 317.77 52.172V47.608H319.674V51.822C319.674 52.354 319.8 52.774 320.052 53.082C320.314 53.3807 320.668 53.53 321.116 53.53C321.564 53.53 321.933 53.39 322.222 53.11C322.521 52.83 322.67 52.4707 322.67 52.032V47.608H324.574V55H322.754L322.712 53.964C322.46 54.3187 322.124 54.6033 321.704 54.818C321.294 55.0327 320.85 55.14 320.374 55.14ZM330.79 55.14C330.323 55.14 329.875 55.0467 329.446 54.86C329.026 54.664 328.69 54.4213 328.438 54.132L328.396 54.972H326.576V44.64H328.494V48.476C328.737 48.1867 329.059 47.944 329.46 47.748C329.871 47.552 330.3 47.454 330.748 47.454C331.392 47.454 331.966 47.6173 332.47 47.944C332.983 48.2707 333.385 48.7233 333.674 49.302C333.973 49.8807 334.122 50.5433 334.122 51.29C334.122 52.0367 333.977 52.6993 333.688 53.278C333.399 53.8567 333.002 54.314 332.498 54.65C332.003 54.9767 331.434 55.14 330.79 55.14ZM330.356 53.502C330.916 53.502 331.373 53.2967 331.728 52.886C332.083 52.4753 332.26 51.9433 332.26 51.29C332.26 50.646 332.083 50.1233 331.728 49.722C331.383 49.3113 330.925 49.106 330.356 49.106C329.777 49.106 329.311 49.3113 328.956 49.722C328.601 50.1233 328.424 50.646 328.424 51.29C328.424 51.9433 328.601 52.4753 328.956 52.886C329.311 53.2967 329.777 53.502 330.356 53.502ZM338.119 55.14C337.437 55.14 336.831 55.028 336.299 54.804C335.767 54.58 335.337 54.2627 335.011 53.852L336.215 52.83C336.495 53.138 336.812 53.362 337.167 53.502C337.521 53.6327 337.881 53.698 338.245 53.698C338.534 53.698 338.767 53.6327 338.945 53.502C339.122 53.3713 339.211 53.1893 339.211 52.956C339.211 52.7507 339.127 52.5873 338.959 52.466C338.791 52.354 338.389 52.214 337.755 52.046C336.812 51.8033 336.145 51.472 335.753 51.052C335.407 50.6787 335.235 50.2167 335.235 49.666C335.235 49.2273 335.365 48.8447 335.627 48.518C335.888 48.182 336.233 47.9207 336.663 47.734C337.092 47.5473 337.559 47.454 338.063 47.454C338.641 47.454 339.187 47.5567 339.701 47.762C340.214 47.9673 340.643 48.2473 340.989 48.602L339.953 49.736C339.691 49.4933 339.388 49.2927 339.043 49.134C338.707 48.966 338.394 48.882 338.105 48.882C337.433 48.882 337.097 49.1153 337.097 49.582C337.106 49.806 337.209 49.9833 337.405 50.114C337.591 50.2447 338.016 50.3987 338.679 50.576C339.565 50.8093 340.191 51.1173 340.555 51.5C340.872 51.8267 341.031 52.2607 341.031 52.802C341.031 53.25 340.9 53.6513 340.639 54.006C340.387 54.3607 340.041 54.6407 339.603 54.846C339.164 55.042 338.669 55.14 338.119 55.14ZM342.463 55V47.608H344.311L344.339 48.826C344.581 48.4247 344.899 48.098 345.291 47.846C345.692 47.5847 346.112 47.454 346.551 47.454C346.719 47.454 346.873 47.468 347.013 47.496C347.162 47.5147 347.288 47.5427 347.391 47.58L346.873 49.68C346.77 49.624 346.639 49.5773 346.481 49.54C346.322 49.5027 346.163 49.484 346.005 49.484C345.547 49.484 345.16 49.6427 344.843 49.96C344.535 50.268 344.381 50.66 344.381 51.136V55H342.463ZM349.681 46.068C349.308 46.068 349.014 45.9747 348.799 45.788C348.594 45.6013 348.491 45.3447 348.491 45.018C348.491 44.7007 348.594 44.444 348.799 44.248C349.014 44.052 349.308 43.954 349.681 43.954C350.055 43.954 350.344 44.0473 350.549 44.234C350.755 44.4207 350.857 44.682 350.857 45.018C350.857 45.326 350.75 45.578 350.535 45.774C350.33 45.97 350.045 46.068 349.681 46.068ZM348.729 55V47.608H350.647V55H348.729ZM356.999 55.14C356.532 55.14 356.084 55.0467 355.655 54.86C355.235 54.664 354.899 54.4213 354.647 54.132L354.605 54.972H352.785V44.64H354.703V48.476C354.946 48.1867 355.268 47.944 355.669 47.748C356.08 47.552 356.509 47.454 356.957 47.454C357.601 47.454 358.175 47.6173 358.679 47.944C359.192 48.2707 359.594 48.7233 359.883 49.302C360.182 49.8807 360.331 50.5433 360.331 51.29C360.331 52.0367 360.186 52.6993 359.897 53.278C359.608 53.8567 359.211 54.314 358.707 54.65C358.212 54.9767 357.643 55.14 356.999 55.14ZM356.565 53.502C357.125 53.502 357.582 53.2967 357.937 52.886C358.292 52.4753 358.469 51.9433 358.469 51.29C358.469 50.646 358.292 50.1233 357.937 49.722C357.592 49.3113 357.134 49.106 356.565 49.106C355.986 49.106 355.52 49.3113 355.165 49.722C354.81 50.1233 354.633 50.646 354.633 51.29C354.633 51.9433 354.81 52.4753 355.165 52.886C355.52 53.2967 355.986 53.502 356.565 53.502ZM365.336 55.14C364.542 55.14 363.847 54.9767 363.25 54.65C362.652 54.3233 362.186 53.8753 361.85 53.306C361.523 52.7367 361.36 52.0833 361.36 51.346C361.36 50.5807 361.518 49.9087 361.836 49.33C362.162 48.742 362.606 48.28 363.166 47.944C363.735 47.608 364.388 47.44 365.126 47.44C365.788 47.44 366.381 47.6033 366.904 47.93C367.436 48.2473 367.846 48.6813 368.136 49.232C368.434 49.7827 368.574 50.4127 368.556 51.122L368.542 51.724H363.222C363.324 52.256 363.576 52.676 363.978 52.984C364.388 53.292 364.906 53.446 365.532 53.446C365.868 53.446 366.171 53.3947 366.442 53.292C366.722 53.1893 367.02 53.0073 367.338 52.746L368.262 54.034C367.86 54.3887 367.398 54.664 366.876 54.86C366.362 55.0467 365.849 55.14 365.336 55.14ZM365.14 49.092C364.085 49.092 363.45 49.568 363.236 50.52H366.736V50.464C366.708 50.0627 366.54 49.736 366.232 49.484C365.933 49.2227 365.569 49.092 365.14 49.092ZM374.571 55V45.2H376.377L381.431 52.018C381.357 51.43 381.301 50.8187 381.263 50.184C381.235 49.54 381.226 48.798 381.235 47.958V45.2H383.209V55H381.375L376.349 48.294C376.405 48.91 376.447 49.4 376.475 49.764C376.503 50.1187 376.522 50.4173 376.531 50.66C376.541 50.8933 376.545 51.136 376.545 51.388V55H374.571ZM388.918 55.14C388.162 55.14 387.49 54.9767 386.902 54.65C386.314 54.314 385.852 53.8567 385.516 53.278C385.18 52.6993 385.012 52.0367 385.012 51.29C385.012 50.5527 385.18 49.8947 385.516 49.316C385.852 48.7373 386.314 48.2847 386.902 47.958C387.49 47.622 388.162 47.454 388.918 47.454C389.655 47.454 390.318 47.622 390.906 47.958C391.494 48.2847 391.956 48.7373 392.292 49.316C392.628 49.8947 392.796 50.5527 392.796 51.29C392.796 52.0367 392.628 52.6993 392.292 53.278C391.956 53.8567 391.494 54.314 390.906 54.65C390.318 54.9767 389.655 55.14 388.918 55.14ZM388.918 53.474C389.291 53.474 389.627 53.3807 389.926 53.194C390.225 52.998 390.453 52.7367 390.612 52.41C390.78 52.0833 390.864 51.71 390.864 51.29C390.864 50.87 390.78 50.4967 390.612 50.17C390.453 49.8433 390.225 49.5867 389.926 49.4C389.627 49.2133 389.291 49.12 388.918 49.12C388.535 49.12 388.195 49.2133 387.896 49.4C387.597 49.5867 387.364 49.8433 387.196 50.17C387.028 50.4967 386.944 50.87 386.944 51.29C386.944 51.71 387.028 52.0833 387.196 52.41C387.364 52.7367 387.597 52.998 387.896 53.194C388.195 53.3807 388.535 53.474 388.918 53.474ZM395.741 55L393.263 47.608L395.251 47.594L396.665 52.256L398.205 48.686H399.325L400.893 52.228L402.307 47.608H404.281L401.775 55H400.403L398.737 51.024L397.113 55H395.741Z" fill="white"/>
</g>
<defs>
<filter id="filter0_d_4_392" x="0" y="0" width="457" height="118" filterUnits="userSpaceOnUse" color-interpolation-filters="sRGB">
<feFlood flood-opacity="0" result="BackgroundImageFix"/>
<feColorMatrix in="SourceAlpha" type="matrix" values="0 0 0 0 0 0 0 0 0 0 0 0 0 0 0 0 0 0 127 0" result="hardAlpha"/>
<feOffset dy="9"/>
<feGaussianBlur stdDeviation="16"/>
<feColorMatrix type="matrix" values="0 0 0 0 0.350486 0 0 0 0 0.35895 0 0 0 0 0.858333 0 0 0 0.08 0"/>
<feBlend mode="normal" in2="BackgroundImageFix" result="effect1_dropShadow_4_392"/>
<feBlend mode="normal" in="SourceGraphic" in2="effect1_dropShadow_4_392" result="shape"/>
</filter>
</defs>
</svg>
